<?xml version="1.0" ?><!DOCTYPE svg  PUBLIC '-//W3C//DTD SVG 1.1//EN'  'http://www.w3.org/Graphics/SVG/1.1/DTD/svg11.dtd'><svg height="512px" style="enable-background:new 0 0 512 512;" version="1.1" viewBox="0 0 512 512" width="512px" xml:space="preserve" xmlns="http://www.w3.org/2000/svg" xmlns:xlink="http://www.w3.org/1999/xlink"><g id="_x35_3"><g><g><g><g><g><g><path d="M164.419,406.533c-0.016-0.318-0.73-0.041-0.876-0.058         C163.845,406.96,164.608,406.473,164.419,406.533z" style="fill:#202020;"/><polygon points="167.543,410.765 167.221,410.797 168.193,411.17        " style="fill:#202020;"/><path d="M169.259,414.828c1.017-0.925-0.875-1.345-0.736-2.271l0.225-0.233l-1.1,0.069         C168.146,413.244,169.313,414.067,169.259,414.828z" style="fill:#202020;"/><path d="M167.797,418.22c0.38-0.366,0.629,0.271-0.12-0.58c-0.024,0.074-0.045,0.103-0.066,0.149         C167.663,417.874,167.724,417.996,167.797,418.22z" style="fill:#202020;"/><path d="M167.611,417.789C167.356,417.374,167.376,418.264,167.611,417.789L167.611,417.789z" style="fill:#202020;"/><path d="M168.905,419.634c0,0-0.179-0.086-0.357-0.171c-0.174-0.088-0.347-0.176-0.347-0.176         c-0.209,0.262,0.021,0.798-0.276,0.715C168.474,420.465,168.662,420.194,168.905,419.634z" style="fill:#202020;"/><path d="M170.032,419.693l-0.33-0.189C169.622,419.614,169.628,419.712,170.032,419.693z" style="fill:#202020;"/><path d="M169.005,419.092l0.698,0.412c0.138-0.183,0.502-0.394-0.286-0.207         C169.783,419.159,169.388,419.221,169.005,419.092z" style="fill:#202020;"/><path d="M168.999,418.649c0.087-0.448,0.04-0.93,0.723-0.585         C169.021,417.093,168.284,417.659,168.999,418.649z" style="fill:#202020;"/><path d="M170.568,414.458l0.158-0.566l-0.557-0.169C170.446,413.808,170.212,414.656,170.568,414.458z         " style="fill:#202020;"/><path d="M170.426,423.456c0.253-0.118,0.494-0.591,0.765-0.824l-0.529-0.233         C170.637,422.709,170.75,423.202,170.426,423.456z" style="fill:#202020;"/><path d="M171.191,422.632l0.788,0.342C171.675,422.404,171.426,422.434,171.191,422.632z" style="fill:#202020;"/><polygon points="171.343,419.078 169.913,418.585 171.462,419.258        " style="fill:#202020;"/><path d="M172.827,426.844c0,0-0.209-0.014-0.418-0.026c-0.214-0.02-0.429-0.039-0.429-0.039         s0.349,0.063,0.699,0.128c0.336,0.046,0.672,0.092,0.672,0.092L172.827,426.844z" style="fill:#202020;"/><path d="M175.272,428.29c-0.751,0.33,0.255,1.009-0.425,1.148c0.899,0.165,1.794-0.045,2.524-0.257         C176.657,429.21,175.941,428.938,175.272,428.29z" style="fill:#202020;"/><path d="M178.294,428.829c-0.104,0.036-0.217,0.096-0.337,0.168c-0.127,0.071-0.38,0.118-0.585,0.185         c0.179-0.012,0.409-0.021,0.548-0.082C178.038,429.033,178.162,428.946,178.294,428.829z" style="fill:#202020;"/><path d="M172.862,424.452c-0.076,0.177-0.308,0.597-0.059,1.236c0,0,0.073-0.228,0.145-0.454         c0.077-0.222,0.154-0.443,0.154-0.443C173.028,424.688,172.946,424.57,172.862,424.452z" style="fill:#202020;"/><path d="M173.111,424.762l-0.009,0.029c0.254,0.376,0.431,0.637,0.506,0.748         C173.545,425.441,173.396,425.207,173.111,424.762z" style="fill:#202020;"/><path d="M172.802,424.366c0.022,0.031,0.039,0.055,0.06,0.086         C172.895,424.368,172.9,424.333,172.802,424.366z" style="fill:#202020;"/><path d="M171.638,420.986c0.596,0.124,1.44,0.567,1.563-0.462         C172.593,420.564,172.528,421.159,171.638,420.986z" style="fill:#202020;"/><path d="M173.251,423.345c-0.025-0.01-0.402-0.898-0.402-0.898c-0.161,0.129-0.309,0.447-0.636,0.345         c0,0,0.258,0.143,0.516,0.284C172.99,423.21,173.251,423.345,173.251,423.345z" style="fill:#202020;"/><polygon points="173.736,423.581 173.251,423.345 173.428,423.691        " style="fill:#202020;"/><path d="M176.821,427.641c0.303-0.087,0.578-0.103,0.852-0.081c0.137,0.011,0.273,0.031,0.412,0.055         l0.21,0.039l0.137,0.019c-0.046-0.032-0.075-0.06-0.136-0.095l-0.214-0.112l-0.432-0.202         c-0.289-0.125-0.579-0.231-0.871-0.315C176.599,427.148,176.134,427.468,176.821,427.641z" style="fill:#202020;"/><path d="M174.613,426.77c0.041-0.003,0.092-0.006,0.129-0.008         C174.718,426.686,174.68,426.652,174.613,426.77z" style="fill:#202020;"/><path d="M181.886,428.672c-0.005-0.052-0.011-0.099-0.016-0.151c-0.017,0.042-0.031,0.076-0.05,0.125         L181.886,428.672z" style="fill:#202020;"/><path d="M176.742,426.785c-0.373-0.266-0.715-0.168-1.098-0.029c0.378,0.028,0.754,0.086,1.136,0.191         C176.863,426.856,176.9,426.791,176.742,426.785z" style="fill:#202020;"/><path d="M179.359,428.757c-0.103-0.198-0.231-0.378-0.372-0.552         C179.063,428.482,179.251,428.937,179.359,428.757z" style="fill:#202020;"/><path d="M174.776,426.995c-0.03,0.004-0.06,0.01-0.09,0.009         C174.746,427.195,174.773,427.118,174.776,426.995z" style="fill:#202020;"/><path d="M174.776,426.995c0.306-0.027,0.597-0.142,0.868-0.239c-0.306-0.026-0.608-0.028-0.901,0.006         C174.768,426.826,174.778,426.916,174.776,426.995z" style="fill:#202020;"/><path d="M184.313,424.175c-0.249,0.679-1.177,1.105-1.605,0.178c-0.781,0.337-1.023,2.735-0.838,4.168         c0.106-0.297,0.187-0.576,0.954-0.799c-0.119-0.443-1.187-1.3-0.458-1.769c0.963-0.109,0.635,0.448,0.948,0.935         c-0.107-0.965,1.457-0.94,1.634-2.264l-0.883,0.229C184.106,424.652,184.471,424.416,184.313,424.175z" style="fill:#202020;"/><path d="M180.651,428.093l-0.292,0.009c0.27,0.209,0.409,0.549,0.655,1.206         c0.542-0.21,0.708-0.44,0.805-0.662l-1.289-0.476L180.651,428.093z" style="fill:#202020;"/><path d="M179.158,427.76c0.426-0.693,1.16-0.83,1.001-1.759c-0.8-0.173-0.731,0.472-1.294,0.664         c1.32,0.178-0.484,0.314,0.308,1.006c-0.286,0.056-0.521,0.031-0.741,0.001c0.202,0.158,0.389,0.335,0.556,0.533         c-0.006-0.021-0.01-0.037-0.016-0.055l-0.006,0.001l0.005-0.012c-0.028-0.11-0.029-0.173,0.017-0.1         c0.007-0.009,0.023-0.008,0.031-0.008c0.039-0.103,0.088-0.188,0.139-0.269c0.322,0.261,0.001,0.213-0.139,0.269         c-0.015,0.035-0.035,0.067-0.047,0.107l0.001,0.011l1.388-0.049C180.121,427.92,179.779,427.845,179.158,427.76z" style="fill:#202020;"/><path d="M175.016,420.223c-0.035,0.072-0.083,0.102-0.129,0.135         C175.014,420.378,175.086,420.368,175.016,420.223z" style="fill:#202020;"/><path d="M174.919,420.944c-0.144-0.021-0.45,0.085-0.557-0.229c0.046-0.36,0.316-0.203,0.524-0.357         c-0.277-0.043-0.84-0.26-0.829,0.457l0.142,0.022c0.033,0.553-0.25,1.89-0.394,1.861         C174.25,422.103,174.555,421.652,174.919,420.944z" style="fill:#202020;"/><path d="M176.143,424.875l1.557,0.053c0,0-0.093-0.203-0.186-0.406c-0.08-0.2-0.16-0.399-0.16-0.399         l-0.168,0.375C176.537,424.143,176.418,424.63,176.143,424.875z" style="fill:#202020;"/><polygon points="181.899,429.082 181.53,429.837 182.463,428.889        " style="fill:#202020;"/><polygon points="183.299,429.381 183.049,430.06 183.532,429.745        " style="fill:#202020;"/><path d="M148.417,127.167l-0.122,2.863C148.386,128.679,148.417,127.808,148.417,127.167z" style="fill:#202020;"/><path d="M150.821,106.614l-0.295-0.544C150.612,107.045,150.71,107.452,150.821,106.614z" style="fill:#202020;"/><path d="M300.127,234.86c4.212-0.219,8.979-0.179,8.316-0.864l-1.415-0.503         C304.213,234.244,302.016,234.627,300.127,234.86z" style="fill:#202020;"/><path d="M279.15,143.317c0.404-0.003,0.825-0.007,1.242-0.011c0.935-0.469,1.814-0.911,2.601-1.307         C281.838,142.396,280.526,142.846,279.15,143.317z" style="fill:#202020;"/><path d="M276.932,147.109l-5.479,0.608C272.698,147.643,274.462,147.453,276.932,147.109z" style="fill:#202020;"/><path d="M100.62,223.929l-2.388,2.462C102.639,223.598,100.482,224.483,100.62,223.929z" style="fill:#202020;"/><path d="M281.179,357.789c1.793,0.192,3.403,0.337,4.879,0.444c0.738,0.048,1.442,0.093,2.119,0.136         c0.338,0.017,0.67,0.033,0.995,0.05c0.353,0.012,0.564,0.036,1.095,0.025c-0.451-0.015-0.667-0.057-0.936-0.091         c-0.263-0.036-0.522-0.071-0.777-0.106c-0.511-0.073-1.005-0.145-1.481-0.213c-0.951-0.138-1.826-0.264-2.603-0.353         C282.916,357.504,281.757,357.473,281.179,357.789z" style="fill:#202020;"/><path d="M141.02,118.124c-0.057,1.754,0.018,2.515,0.198,2.484         C141.289,118.803,141.255,117.774,141.02,118.124z" style="fill:#202020;"/><path d="M302.956,351.909c-0.593,0.674-1.208,1.293-1.9,1.864c-1.271,1.308-2.765,2.424-4.549,3.269         c-1.779,0.837-3.875,1.404-6.24,1.402c2.346,0.147,4.93-0.296,7.183-1.46C299.713,355.85,301.69,354.077,302.956,351.909z" style="fill:#202020;"/><path d="M169.24,387.335c-0.027,0.041-0.035,0.084-0.069,0.123         C169.277,387.444,169.272,387.397,169.24,387.335z" style="fill:#202020;"/><path d="M164.437,402.252c-0.077-0.119-0.125-0.33-0.181-0.527         C164.225,401.834,164.267,401.996,164.437,402.252z" style="fill:#202020;"/><path d="M224.27,403.035C222.417,404.974,224.033,403.398,224.27,403.035L224.27,403.035z" style="fill:#202020;"/><path d="M212.866,410.084c0.339-0.467,0.563-0.854,0.481-1.029         C213.327,409.345,213.149,409.695,212.866,410.084z" style="fill:#202020;"/><path d="M303.863,322.972c0.012-0.077,0.021-0.14,0.033-0.229         C303.64,323.514,303.687,323.381,303.863,322.972z" style="fill:#202020;"/><path d="M221.172,405.645c0.778-0.646,1.653-1.412,2.583-2.268         C223.32,403.727,222.532,404.412,221.172,405.645z" style="fill:#202020;"/><path d="M221.819,405.522c-0.673,0.634-1.202,1.134-1.706,1.608         C219.968,407.464,220.238,407.31,221.819,405.522z" style="fill:#202020;"/><path d="M226.872,400.355c-1.072,1.097-2.107,2.086-3.117,3.021c0.409-0.336,0.596-0.461,0.515-0.342         C224.817,402.471,225.59,401.676,226.872,400.355z" style="fill:#202020;"/><path d="M150.958,318.524c0.064,0.191,0.138,0.41,0.208,0.619c0.823,1.293,0.931,1.777,0.878,1.51         C151.999,320.381,151.559,319.545,150.958,318.524z" style="fill:#202020;"/><path d="M343.314,185.007c-0.05,0.117-0.063,0.187-0.105,0.294c0.064-0.109,0.146-0.246,0.205-0.345         L343.314,185.007z" style="fill:#202020;"/><path d="M347.195,176.056c-1.011,4.163-2.176,6.195-3.781,8.9l3.477-1.82L347.195,176.056z" style="fill:#202020;"/><path d="M143.004,176.419l1.474-6.638c0.231,8.242-0.841,14.063,0.873,7.869         c-2.347-1.231,2.74-26.142,0.394-27.357l1.024-4.371c-0.169,1.267-0.048,1.487-0.216,2.738         c2.163-8.479-1.043-6.602,0.579-17.66c0.631-3.845,1.297-6.504,1.286-3.833l0.38-8.687c0.335-2.502,0.691-1.84,0.359,0.651         l1.309-13.167l0.061,0.106c-0.017-0.234-0.036-0.505-0.058-0.804c-0.01-0.266-0.021-0.556-0.032-0.863         c-0.008-0.312-0.016-0.64-0.024-0.978c0.021-0.351,0.043-0.711,0.065-1.073c0.034-0.726,0.101-1.466,0.208-2.149         c0.1-0.681,0.159-1.31,0.271-1.798c1.346-2.918-0.26,1.599,0.315,0.913c0,0,0.073-0.424,0.234-1.055         c0.164-0.628,0.329-1.487,0.584-2.318c0.454-1.687,1.036-3.325,1.035-3.325c1.766-2.276-0.23,3.08-1.512,7.594         c2.068-2.678,2.419-3.983,3.051-6.21c0.173-0.541,0.326-1.18,0.593-1.833c0.135-0.33,0.279-0.682,0.434-1.06         c0.083-0.234,0.161-0.411,0.252-0.583c0.048-0.089,0.099-0.182,0.15-0.278c0.052-0.097,0.1-0.205,0.229-0.223         c0.22-0.083,0.461-0.163,0.717-0.234c1.213-0.427,2.821-0.959,4.575-1.473c0,0-1.574,0.721-3.147,1.441         c-0.394,0.18-0.787,0.36-1.156,0.529c-0.108,0.063-0.209,0.123-0.296,0.174c-0.153,0.094-0.256,0.157-0.256,0.157         c0.209,0.071,0.421,0.144,0.639,0.219c0.045,0.015,0.08,0.032,0.126,0.043l0.449-0.096c0.299-0.073,0.602-0.146,0.91-0.221         c1.225-0.319,2.5-0.732,3.867-1.199c0.325-0.111,0.655-0.224,0.991-0.339l0.138,0.004l0.125,0.013         c0.041,0.03,0.08,0.066,0.114,0.1c0.055,0.043,0.022,0.053,0.136,0.127l0.067,0.049l0.252,0.115         c0.17,0.078,0.343,0.156,0.517,0.235c0.688,0.291,1.422,0.733,2.163,1.142c-0.324-0.232-1.239-0.895-2.296-1.481         c-0.721-0.378-0.661-0.501-0.773-0.669c-0.051-0.084-0.112-0.174-0.182-0.266c-0.069-0.089-0.143-0.106-0.225-0.159         c-0.091-0.045-0.178-0.088-0.257-0.127c-0.047-0.021-0.092-0.042-0.134-0.061c-0.026-0.008-0.036-0.024-0.076-0.026         c-0.063,0.006-0.125,0.012-0.183,0.017c-0.473,0.04-0.812,0.029-0.956-0.052c-0.143-0.081-0.09-0.232,0.222-0.474         c0.078-0.061,0.172-0.127,0.284-0.199c0.056-0.035,0.116-0.073,0.18-0.113c0.073-0.043,0.134-0.081,0.146-0.098         c0.111-0.095,0.26-0.202,0.45-0.32c0.114-0.023,0.232-0.048,0.354-0.074c0.119-0.048,0.25,0.079,0.38,0.106         c0.287,0.113,0.471,0.154,0.942,0.323c1.36,0.439,2.943,0.95,4.828,1.559c-0.172,0.418,0.666,0.938,2.028,1.733         c1.383,0.751,3.302,1.806,5.176,3.101l-0.914,0.766c1.056,0.665,1.828,1.151,2.433,1.532         c0.693,0.428,1.217,0.702,1.689,0.926c0.944,0.448,1.678,0.691,3.131,1.55c4.799,4.106,5.235,5.635,5.898,7.167         c7.684,6.577-4.467-5.558,4.906,1.888c6.205,5.694,11.063,9.085,19.269,14.949c4.285,4.055-1.248-0.106,0.169,1.495         l4.616,2.604c0.972,0.83,0.472,0.788,0.219,0.766c3.62,2.519,1.02-0.667,6.553,3.486c1.126,0.099,3.565,2.717,6.663,5.851         c1.549,1.567,3.263,3.263,5.06,4.837c0.898,0.787,1.818,1.544,2.748,2.239c0.969,0.705,1.752,1.295,3.011,1.929         c0.937,0.862,0.604,0.843,0.051,0.693c-0.548-0.148-1.313-0.442-1.118-0.025c1.585,1.071,2.972,1.604,4.166,2.139         c1.215,0.385,2.23,0.78,3.147,0.976c0.917,0.199,1.695,0.397,2.416,0.511c0.723,0.087,1.374,0.165,2.006,0.241         c0.623,0.094,1.261,0.054,1.913,0.072c0.657,0.001,1.339,0.023,2.14-0.091c0.796-0.105,1.653-0.129,2.697-0.426         c0.507-0.127,1.082-0.258,1.624-0.418c0.496-0.173,1.027-0.358,1.602-0.558l8.194-0.907c-6.083,0.36,1.256-2.207,7.697-4.4         c-2.181,0.018-4.046,0.024-5.282,0.099l10.426-2.784c1.313-0.075,0.331,0.535-1.301,1.368         c0.701-0.243,1.363-0.476,1.877-0.671c3.861-0.355,2.04,0.705-0.532,1.898c-1.334,0.027-2.657,0.054-3.945,0.08         c-2.465,1.229-4.745,2.498-4.064,3.054c0.658-0.272,1.956-0.658,3.395-1.02c-0.643,0.329-1.043,0.586-0.704,0.635         c0.383,0.046,1.433-0.432,3.098-1.079l2.661,0.777l0.478-0.625l13.97-2.046c9.614-3.313,17.818-6.965,33.388-10.717         c-3.697,1.733-0.522,1.694-0.507,2.842c-4.519-0.289-12.04,2.997-20.214,4.432c4.265-0.75,3.441-0.032,2.401,0.374         l14.272-4.047c-0.142,0.971,3.216,0.044,7.078-0.362c-1.628-0.589,1.055-1.473,4.762-2.354         c3.431-0.798,8.323-0.834,11.207-0.89c0.16,0.313-0.122,0.61-1.3,0.771c-0.589,0.068-1.401,0.126-2.5,0.185         c-1.098,0.032-2.484,0.091-4.18,0.193c3.786,0.384,6.234-0.011,8.741-0.405c0.623-0.081,1.252-0.17,1.9-0.229         c0.32-0.01,0.646-0.02,0.978-0.03c0.296,0,0.598-0.001,0.909-0.002c0.534,0.015,1.081,0.113,1.659,0.25         c0.41,0.413,0.716,1.025,1.043,1.649c-0.774-0.94-1.055-1.671-1.754-1.32c0.177,0.009,0.384,0.003,0.579,0.043         c0.137,0.14,0.282,0.289,0.435,0.444c0.149,0.167,0.306,0.34,0.467,0.519l0.241,0.281l0.355,0.435         c0.477,0.587,0.956,1.198,1.419,1.804c0.229,0.304,0.457,0.605,0.679,0.9c0.19,0.262,0.376,0.518,0.555,0.765         c0.265,0.382,0.497,0.735,0.68,1.038c0.138,0.136,0.071,0.321,0.043,0.475c-0.029,0.154-0.06,0.289-0.09,0.403         c-0.123,0.456-0.255,0.556-0.377,0.221c0,0,0.006-0.259,0.012-0.519c0.075-0.282-0.177-0.457-0.159-0.462         c0.044,0.093,0.17,0.16,0.148,0.276l-0.021,0.34c-0.013,0.229-0.026,0.463-0.04,0.704c-0.071,0.661-0.146,1.354-0.222,2.071         c-0.135,0.842-0.273,1.713-0.416,2.605c-0.19,0.889-0.346,1.809-0.566,2.728c-0.439,1.834-0.92,3.735-1.553,5.511         c-0.281,0.92-0.651,1.74-0.984,2.583c-0.407,0.911-0.811,1.812-1.205,2.695c-3.148,7.165-5.698,13.062-5.4,14.231         c-0.229,0.01-0.963-2.242-0.926-3.015c0,0-0.298,1.321-0.745,3.304c-0.465,2.004-1.084,4.678-1.703,7.351         c-1.237,5.333-2.476,10.666-2.476,10.666c-0.344-2.272-6.41,2.731-2.63-6.439c-1.457,2.461-3.221,5.484-5.492,11.037         c1.039-1.643,3.885-3.442,2.806-1.027c-4.583,5.814-2.972,4.143-8.117,11.563c1.558-2.46,1.973,1.353-0.146,5.415         c0.043-0.779-2.01-0.584-1.451-2.178c0,0-0.206,0.694-0.515,1.735c-0.155,0.521-0.335,1.128-0.528,1.779         c-0.048,0.161-0.097,0.325-0.146,0.491l-0.142,0.407c-0.095,0.281-0.192,0.566-0.289,0.851l-0.146,0.439l-0.213,0.42         c-0.144,0.283-0.284,0.562-0.42,0.832c-0.251,0.56-0.589,1.034-0.864,1.455c-0.278,0.425-0.511,0.778-0.674,1.026         c-0.186,0.231-0.293,0.363-0.293,0.363c1.657-2.122-0.859-1.463-2.886-0.59c0.27-0.065-0.032,0.2-0.669,0.669         c-0.617,0.508-1.636,1.077-2.749,1.666c-0.565,0.223-1.154,0.499-1.729,0.712c-0.283,0.078-0.564,0.154-0.841,0.23         l-0.408,0.121l-0.2,0.062l-0.266,0.056c-1.413,0.298-2.643,0.574-3.375,0.783c0,0,1.206-0.138,2.412-0.277         c0.302-0.035,0.604-0.069,0.886-0.102c0.142-0.016,0.278-0.032,0.407-0.047c0.102-0.018,0.198-0.035,0.287-0.05         c0.353-0.061,0.589-0.101,0.589-0.101c-0.312,0.086-0.612,0.169-0.904,0.25c-0.369,0.08-0.727,0.157-1.073,0.231         c-0.691,0.156-1.338,0.313-1.943,0.473c-1.213,0.32-2.267,0.648-3.216,0.982c-1.896,0.668-3.37,1.36-4.839,2.058         c-2.938,1.395-5.859,2.812-12.112,4.104c1.421-0.739,3.185-3.348-3.22-2.232c-1.35,0.843-4.351,2.72-8.23,5.146         c-1.898,1.237-4.016,2.519-6.229,3.911c-1.118,0.667-2.274,1.328-3.401,2.046c-0.572,0.347-1.151,0.687-1.738,1.017         c-0.285,0.166-0.623,0.334-0.809,0.464c-0.157,0.121-0.399,0.297-0.616,0.477c0,0-0.445,0.117-0.901,0.284         c-0.453,0.165-0.903,0.375-0.903,0.375c0,0-0.328,0.345-0.765,0.903c-0.438,0.557-0.945,1.35-1.37,2.172         c-0.85,1.66-1.178,3.471-1.178,3.471c-0.067-1.2,0.086-2.98,0.904-5.036c0.412-1.02,0.999-2.094,1.786-3.128         c0.39-0.522,0.834-1.025,1.329-1.511c0.494-0.509,1.102-0.875,1.665-1.29c4.598-3.367,9.909-6.273,13.924-8.028         c-1.254,0.184-1.971,0.288-2.458,0.359c-0.484,0.051-0.741,0.078-1.072,0.112c-0.33,0.046-0.729,0.131-1.491,0.349         c-0.761,0.222-1.896,0.541-3.641,1.218c-1.337,0.189-0.454-0.36,1.034-1.059c1.496-0.67,3.625-1.395,4.676-1.751         c0,0-1.054,0.308-2.633,0.769c-1.593,0.426-3.657,1.173-5.739,1.878c-1.035,0.33-2.087,0.765-3.071,1.165         c-1,0.407-1.934,0.787-2.733,1.112c-1.291,0.617-1.923,1.091-2.473,1.465c-0.519,0.364-0.79,0.59-0.79,0.59         c0.393,0.086-0.242,0.833-1.167,2.032c-0.932,1.193-2.126,2.9-2.983,4.768c-1.805,3.75-1.867,7.795-1.328,7.445         c0,0,0.03-0.341,0.083-0.938c0.092-0.588,0.18-1.442,0.449-2.436c0.466-1.997,1.53-4.65,3.237-6.93         c0.847-1.139,1.818-2.188,2.84-3.083c0.52-0.445,1.031-0.858,1.588-1.234c0.254-0.178,0.626-0.409,0.937-0.58         c0.235-0.12,0.462-0.235,0.68-0.347c1.625-0.825,2.709-1.375,2.709-1.375c0.298,0.205-0.12,0.785-1.067,1.604         c-0.237,0.205-0.508,0.424-0.809,0.657c-0.31,0.242-0.599,0.451-1.059,0.779c-0.954,0.729-1.696,1.477-2.525,2.408         c-1.614,1.825-3.146,4.242-4.097,7.062c-0.965,2.799-1.357,5.992-0.965,9.172c-0.019,0.824-0.119,1.116-0.375,1.092         c-0.242-0.026-0.601-0.379-0.93-0.868c-0.706-0.958-1.251-2.504-1.444-2.354c0.1,0.477,0.242,1.584,0.556,2.953         c0.317,1.37,0.842,2.98,1.586,4.504c0.187,0.383,0.386,0.761,0.604,1.14c0.215,0.379,0.532,0.87,0.739,1.112         c0.414,0.543,0.806,1.057,1.153,1.512c0.683,0.917,1.167,1.619,1.279,1.895c0,0-0.923-0.965-1.846-1.93         c-0.471-0.499-0.942-0.997-1.296-1.371c-0.205-0.233-0.403-0.531-0.519-0.696c-0.106-0.156-0.168-0.246-0.168-0.246         c0.106,0.231,0.275,0.549,0.434,0.815c0.16,0.266,0.289,0.433,0.411,0.611c0.241,0.343,0.485,0.675,0.731,0.996         c0.491,0.644,0.989,1.247,1.491,1.827c1.003,1.162,2.095,2.098,3.152,3.149c1.048,1.052,2.176,2.08,3.317,3.286         c0.567,0.605,1.14,1.256,1.716,1.97c0.622,0.692,1.254,1.447,1.899,2.285c0.497,0.503,1.079,1.27,1.651,1.963         c0.567,0.721,1.167,1.481,1.722,2.186c1.109,1.406,2.077,2.547,2.497,2.439c-2.378-4.049-0.121-7.834,2.796-6.6         c0.649,0.718,9.778,10.695,11.636,13.316c2.611,3.854-6.782-2.641-4.564,0.647c0.348-0.137,2.475,1.241,3.335,1.844         c1.943,2.152-1.581-0.038,3.16,4.069c0.402-0.054,1.188,0.461,2.041,1.146c0.106,0.087,0.214,0.176,0.322,0.265l0.249,0.248         c0.163,0.169,0.326,0.339,0.487,0.505c0.158,0.169,0.314,0.333,0.463,0.49c0.136,0.177,0.25,0.364,0.361,0.525         c0.439,0.655,0.715,1.066,0.629,0.854c-0.043-0.106-0.176-0.37-0.423-0.851c-0.135-0.226-0.252-0.569-0.485-0.861         c-0.223-0.316-0.483-0.685-0.785-1.112c0.467,0.457,0.909,0.833,1.26,1.237c0.322,0.44,0.609,0.834,0.875,1.198         c0.509,0.748,0.791,1.49,1.151,2.195c0.252,0.769,0.583,1.537,0.862,2.538c0.131,0.504,0.285,1.053,0.467,1.67         c0.121,0.626,0.257,1.323,0.41,2.114c0.187-1.063,1.265,0.191,1.822,2.788c0.134,0.643,0.245,1.387,0.265,2.176         c0.043,0.785,0.072,1.608,0.086,2.441c0.026,1.668-0.009,3.377-0.12,4.912c-0.266-0.399-0.853,0.915-1.125,1.554         c-0.87,6.227-1.664,10.995-2.432,15.66c-0.19,1.167-0.38,2.326-0.571,3.501c-0.095,0.586-0.189,1.176-0.285,1.771         l-0.176,0.834c-0.073,0.275-0.17,0.547-0.253,0.824c-0.768,2.172-2.317,4.244-4.633,5.703         c-0.498,0.157-1.956,0.728-3.077,0.776c-0.557,0.043-1.009,0.005-1.198-0.097c-0.189-0.09-0.113-0.227,0.349-0.416         c-0.329,0.08-0.654,0.235-1.013,0.297c-0.181,0.041-0.368,0.082-0.563,0.126c-0.235,0.028-0.481,0.059-0.742,0.091         c-1.053,0.114-2.347,0.198-4.155,0.175c-6.974-1.223,8.065,0.007,2.76-1.396c-0.236,0.355-2.579,0.554-5.509,0.705         c-1.465,0.065-3.075,0.138-4.643,0.207c-0.753,0.012-1.627,0.114-2.424,0.205c-0.811,0.055-1.525,0.276-2.193,0.432         c0.465,0.216,1.441,0.147,2.788,0.198c0.332-0.002,0.685-0.005,1.056-0.008c0.355,0.009,0.728,0.019,1.113,0.028         c0.773,0.01,1.601,0.005,2.457-0.013c1.712-0.034,3.537-0.114,5.257-0.208c0.859-0.051,1.693-0.1,2.474-0.145         c0.39-0.025,0.767-0.049,1.127-0.072c0.367-0.021,0.708-0.045,0.96-0.088c0.121,0.808-2.221,1.519-5.982,2.128         c-1.895,0.301-4.171,0.567-6.741,0.787c-0.314,0.032-0.663,0.043-0.961,0.091c-0.295,0.047-0.593,0.095-0.895,0.143         c-0.298,0.045-0.601,0.09-0.906,0.136c-0.309,0.081-0.621,0.163-0.937,0.245c-0.629,0.152-1.268,0.312-1.912,0.563         c-0.646,0.23-1.309,0.417-1.955,0.726c-0.523,0.206-0.995,0.393-1.42,0.561c-0.415,0.191-0.784,0.363-1.112,0.516         c-0.661,0.294-1.169,0.494-1.527,0.676c-0.735,0.331-1.025,0.343-1.113,0.238c-0.18-0.207,0.468-0.898-0.176-0.415         c-0.489,0.24-0.915,0.528-1.32,0.814c-0.403,0.286-0.817,0.541-1.169,0.828c-0.673,0.625-1.277,1.101-1.868,1.772         c-1.165,1.248-2.127,2.343-2.949,3.327c-1.644,1.97-2.729,3.501-3.765,4.944c-2.072,2.888-3.944,5.427-9.691,10.425         c-4.942,3.587-1.573-1.18-3.016-0.729c5.329-5.89,9.025-8.203,12.789-12.047l-4.995,4.371         c1.548-2.02,5.105-5.951,7.341-7.799c-4.185,2.965-21.903,21.808-32.427,31.25c-1.535,2.011-4.345,5.321-2.623,4.145         l3.051-3.265c3.453-2.355-5.15,6.732-0.904,2.981c-3.829,4.642-7.943,10.021-14.204,15.689l-1.909,0.337         c0.359,0.102,4.357-3.441,5.786-5.363c-1.063,1.421-3.609,3.448-6.1,5.591c-0.614,0.535-1.239,1.08-1.898,1.623         c-0.317,0.273-0.631,0.543-0.938,0.808c-0.311,0.252-0.617,0.498-0.913,0.737c-1.152,1.009-2.183,1.856-2.773,2.758         c0,0,0.338-0.186,0.845-0.463c0.503-0.287,1.197-0.63,1.859-1.049c0.668-0.418,1.335-0.836,1.836-1.149         c0.492-0.355,0.819-0.593,0.819-0.593c-2.225,2.41-4.846,4.815-7.918,7.023c-0.759,0.562-1.561,1.092-2.399,1.594         c-0.816,0.525-1.7,0.997-2.608,1.449c-0.45,0.235-1.166,0.561-1.831,0.813l-2.038,0.802c-0.336,0.23-0.693,0.032-1.044-0.058         l-1.056-0.311l-2.016-0.622l0.136,0.092c0.073,0.037,0.144,0.073,0.212,0.108c0.141,0.07,0.274,0.137,0.401,0.201         c0.262,0.124,0.498,0.236,0.713,0.339c0.437,0.201,0.8,0.353,1.114,0.473c0.315,0.12,0.582,0.209,0.835,0.285         c0.127,0.035,0.25,0.08,0.375,0.101c0.121-0.048,0.243-0.096,0.37-0.146c0.512-0.202,1.106-0.43,2.114-0.729         c0.254-0.072,0.534-0.152,0.843-0.24c0.289-0.088,0.606-0.184,0.956-0.29c0.518-0.139,1.127-0.287,1.877-0.46         c-1.363,0.173-0.758-0.257,0.589-1.089c1.368-0.821,3.531-2.014,5.504-3.351c1.994-1.292,3.829-2.735,4.712-3.611         c0.444-0.416,0.645-0.721,0.509-0.758c-0.133-0.024-0.61,0.165-1.523,0.63c0.693-0.316,1.35-0.649,1.968-1.078         c0.308-0.211,0.612-0.419,0.914-0.626l0.441-0.32l0.374-0.291c0.988-0.782,1.907-1.604,2.858-2.469         c1.903-1.729,3.933-3.626,6.896-5.704c-0.417-0.104-2.278,1.295,2.272-3.029c0.124-0.276,0.498-0.847,0.74-1.205         c0.145-0.128,0.195-0.172,0.319-0.281c-0.1,0.078-0.175,0.137-0.274,0.215c0.152-0.231,0.16-0.257-0.103,0.081         c-1.167,0.946-2.158,1.669-2.65,1.873c1.595-2.805,8.647-9.865,10.714-12.567c2.749-2.518-0.797,1.402,0.914,0.237         l3.089-4.037c0.932,0.223,7.935-6.061,2.093,0.5l5.59-5.575c3.601-2.974,8.236-7.381,10.771-10.421         c2.75-2.518,5.987-7.31,4.154-4.558c0,0,2.091-2.285,4.183-4.57c1.046-1.143,2.092-2.285,2.876-3.143         c0.425-0.482,0.626-0.627,0.82-0.828c0.18-0.176,0.282-0.276,0.282-0.276l0.194,0.101c1.785-1.444,4.185-2.786,6.679-3.762         c0.313-0.119,0.625-0.266,0.942-0.367l0.958-0.291c0.32-0.095,0.643-0.21,0.962-0.291l0.952-0.193         c0.314-0.057,0.648-0.158,0.949-0.184l0.904-0.077c0.514-0.086,1.462-0.058,2.242-0.068c3.254-0.014,6.562,0.017,9.926,0.162         l1.265,0.06c0.178,0.015,0.484,0.017,0.785,0.016l0.889-0.007c1.175-0.088,2.36-0.247,3.491-0.588         c2.285-0.634,4.41-1.769,6.286-3.312c1.973-2.045,3.536-4.639,4.259-8.031c0.068-0.421,0.138-0.849,0.209-1.284         c0.036-0.314,0.073-0.634,0.111-0.961c0.083-0.651,0.17-1.33,0.26-2.039c0.191-1.418,0.421-2.957,0.701-4.655l0.875-1.237         c0.439-5.268,2.757-15.632,2.321-17.977c0.328-0.675,0.632-1.578,0.917-2.658c0.14-0.554,0.29-1.031,0.389-2.026         c0.045-0.446,0.092-0.906,0.14-1.378c0.018-0.235,0.042-0.479,0.051-0.718c-0.008-0.227-0.016-0.457-0.023-0.689         c-0.07-3.795-1.139-7.793-3.187-11.623c-0.539-0.954-1.047-1.913-1.77-2.835l-1.027-1.379         c-0.405-0.451-0.837-0.895-1.261-1.331c-0.95-0.998-1.49-1.396-2.146-1.982c-0.636-0.556-1.264-1.104-1.879-1.64         c-2.456-2.149-4.687-4.137-6.348-5.761l-0.88,0.447c-2.348-2.17-4.699-4.237-7.229-6.396c-1.271-1.071-2.58-2.174-3.95-3.329         c-0.687-0.572-1.39-1.158-2.11-1.759c-0.656-0.585-1.328-1.186-2.021-1.804l-0.245,0.903         c-0.63-0.521-1.311-1.052-1.963-1.734c-0.655-0.675-1.329-1.405-2.021-2.179c-0.343-0.39-0.693-0.787-1.051-1.193         c-0.333-0.425-0.673-0.858-1.019-1.3c-0.68-0.889-1.383-1.807-2.104-2.75c-0.648-0.962-1.313-1.948-1.989-2.953l-0.479-0.715         l-0.096-0.198l-0.135-0.294c-0.185-0.419-0.347-0.887-0.494-1.356c-0.558-1.918-0.681-3.965-0.349-5.97         c0.109,0.302,0.07,0.941,0.03,1.689c-0.015,0.747-0.029,1.607-0.002,2.338c0.033-1.227,0.169-2.408,0.428-3.571         c0.261-1.162,0.638-2.338,1.136-3.404c0.502-1.071,1.132-2.084,1.907-3.005c0.782-0.894,1.709-1.789,2.568-2.215         c1.412-0.686,2.754-1.446,4.213-2.069c1.458-0.617,2.898-1.25,4.349-1.785c1.462-0.501,2.912-0.966,4.345-1.371         c1.425-0.335,2.826-0.58,4.197-0.766c2.751-0.921,4.871-1.256,6.907-1.491c-0.265,0.059-0.5,0.125-0.698,0.194         c0.293-0.061,0.728-0.15,1.175-0.242c1.29-0.135,2.624-0.255,4.058-0.43c-1.237,0.064-2.417,0.151-3.428,0.292         c2.198-0.491,5.518-1.31,8.749-2.215l1.58,0.556c0.263-0.065,0.477-0.119,0.752-0.188c3.281-0.375,2.495-0.962,0.642-1.237         c1.619-0.496,3.093-0.99,4.221-1.449c1.454,0.41,3.576-0.169,5.821-0.762c2.765-0.747,5.246-2.062,7.419-2.515         c0.249-0.23,0.651-0.61,1.19-1.074c0.532-0.472,1.237-0.98,1.926-1.677c0.709-0.668,1.506-1.39,2.242-2.273         c0.371-0.438,0.78-0.837,1.132-1.329c0.35-0.49,0.703-0.984,1.055-1.478c0.366-0.467,0.638-1.068,0.935-1.604         c0.275-0.535,0.606-1.13,0.755-1.551c0.371-0.912,0.709-1.781,0.986-2.567c0.554-1.572,0.864-2.811,0.72-3.383         c0.23-0.012,0.76-0.85-0.041,0.771c1.836-3.257,3.67-6.511,4.786-9.7l1.707-0.915l2.327-7.958         c2.834-4.119,4.108-5.774,2.664-0.997c4.159-11.172,3.865-8.684,7.277-18.422l0.419,0.771         c0.805-1.637,1.645-3.866,2.47-5.893c0.792-2.027,1.563-3.858,2.306-4.711c0.592-0.836,1.308-2.024,2.129-3.5         c0.409-0.696,0.852-1.653,1.311-2.622c0.417-0.979,0.831-2.026,1.209-3.143c0.757-2.229,1.394-4.726,1.927-7.435         c0.223-1.37,0.477-2.772,0.602-4.265c0.104-0.822,0.146-1.9,0.174-2.894c0.017-0.505,0.033-1.014,0.05-1.524         c-0.313-0.405-0.625-0.812-0.939-1.22c-1.016-1.313-2.048-2.647-3.092-3.997c-0.498-0.641-0.999-1.285-1.501-1.932         l-0.996-1.271l-0.499-0.638l-0.25-0.32l-0.125-0.16c-0.057-0.029-0.129-0.033-0.193-0.051         c-1.052-0.225-2.121-0.476-3.169-0.682l-2.592-0.402l-2.396-0.247c-0.797-0.067-1.591-0.1-2.384-0.151         c-3.175-0.137-6.297-0.108-9.447,0.255c-1.664,0.201-2.983,0.449-4.351,0.663c-1.36,0.206-2.687,0.407-3.97,0.602         c4.367,1.267-9.631,1.012-10.104,2.788c-1.283-0.248-4.171,0.058-0.97-1.047c-10.264,2.616-15.73,2.426-22.605,5.257         c-1.288-0.249,2.069-1.177,0.954-1.251c-0.81,0.277-3.204,1.105-4.343,1.034c-1.116-0.076,1.432-0.725,3.028-1.277         c-10.569,2.263-11.328,3.998-11.806,5.578c-5.503,0.431-8.16,1.077-11.842,2.808c-1.964-0.081-5.18,0.073,1.363-1.447         c-1.857,0.347-7.544,1.34-12.783,2.398c-0.655,0.135-1.303,0.269-1.937,0.399c-0.301,0.058-0.663,0.154-0.901,0.179         c-0.248,0.034-0.492,0.067-0.732,0.101c-0.239,0.039-0.475,0.076-0.704,0.113c-0.23,0.038-0.482,0.02-0.713,0.035         c-0.468,0.016-0.91,0.041-1.32,0.071c-0.84-0.038-1.548-0.04-2.066,0.004c-0.517,0.003-0.842,0.048-0.912,0.185         c-0.25-0.126-0.666-0.252-1.164-0.37c-0.494-0.13-1.054-0.324-1.623-0.467c-0.577-0.129-1.117-0.324-1.579-0.479         c-0.464-0.151-0.85-0.264-1.072-0.316c-0.422-0.208-0.799-0.434-1.168-0.628c-0.363-0.201-0.729-0.372-0.998-0.601         c-0.588-0.452-1.06-0.722-1.619-1.228c-1.063-0.899-1.94-1.64-2.813-2.378c-1.751-1.471-3.501-2.913-6.747-5.519l1.659,1.615         c-3.429-1.009-5.538-4.162-10.823-8.302l0.24,0.011c-11.228-10.572-5.435-3.854-16.411-14.404l0.081,1.199         c-2.286,0.547-9.671-9.413-16.926-14.465l2.136,2.409c-2.061-1.284-4.249-3.916-6.369-6.634         c-1.06-1.359-2.103-2.74-3.105-3.984c-0.501-0.622-0.991-1.21-1.468-1.745c-0.219-0.258-0.513-0.538-0.794-0.797         c-0.28-0.259-0.556-0.5-0.825-0.722c-0.438-0.432-0.017-0.198,0.697,0.268c0.336,0.223,0.832,0.546,1.168,0.796         c0.363,0.259,0.727,0.519,1.027,0.733c-1.042-1.07-2.224-2.054-3.06-2.736c-0.844-0.618-1.45-1.013-1.885-1.264         c-0.873-0.497-1.07-0.358-1.19-0.175c-0.121,0.194-0.172,0.479-0.746,0.411c-0.573-0.069-1.654-0.509-3.902-1.578         c-0.685-0.69,0.016-0.774,0.151-1.081c0.115-0.28-0.293-0.862-3.467-2.274c-0.383-0.217-0.951-0.495-1.734-0.756         c-0.396-0.122-0.832-0.257-1.305-0.403c-0.301-0.087-0.614-0.177-0.937-0.271c-0.345-0.1-0.783-0.189-1.188-0.287         c-0.822-0.187-1.691-0.384-2.601-0.59c-0.874,0.275-1.764,0.77-2.679,1.162c-0.228,0.104-0.457,0.209-0.688,0.315         c-0.231,0.106-0.488,0.222-0.587,0.277c-0.277,0.14-0.558,0.282-0.842,0.425c-0.57,0.286-1.153,0.578-1.746,0.875         c-0.594,0.293-1.199,0.592-1.808,0.893c-0.661,0.319-1.052,0.522-2.203,1.038l-1.471,0.663l-0.731,0.327         c-0.108,0.07-0.274,0.072-0.334,0.198l-0.196,0.354c-0.521,0.931-1.039,1.856-1.551,2.772         c-0.355,0.712-0.707,1.417-1.052,2.109c-0.3,0.638-0.595,1.265-0.881,1.876c-0.608,1.209-1.086,2.37-1.658,3.4         c1.193-1.753,2.302-3.417,1.037,1.017c-0.528,1.683-1.249,3.614-1.872,5.803c-0.342,1.072-0.606,2.258-0.868,3.472         c-0.231,1.139-0.42,2.205-0.623,3.314c-0.789,4.394-1.403,8.727-1.003,11.823c-0.226,0.833-0.386,1.139-0.508,1.161         c-0.2,5.142-1.259,16.64-0.804,19.802c-3.536,4.368-2.174,31.858-4.923,31.429c0,0-0.412,3.924-0.824,7.848         c-0.208,1.953-0.416,3.905-0.572,5.37c-0.103,0.569-0.188,1.044-0.249,1.376c-0.047,0.333-0.157,0.536-0.143,0.534         l-0.165-0.399c-0.356,0.975-0.613,1.88-1.035,2.708c-0.332,0.845-0.77,1.577-1.132,2.272         c-0.766,1.365-1.476,2.473-2.129,3.377c-0.158,0.234-0.31,0.459-0.456,0.676c-0.159,0.198-0.313,0.388-0.46,0.573         c-0.298,0.362-0.551,0.766-0.825,1.066c-0.575,0.589-0.961,1.164-1.698,1.792c-2.071,1.086-0.771-0.043-0.687-0.27         c-12.758,7.405-13.934,8.289-23.638,16.065l-1.569-0.075c-2.551,2.233-18.767,10.195-30.423,18.812         c0.065-0.162,0.224-0.47,1.126-1.191c-3.295,2.397-7.083,4.765-10.963,7.061l-1.458,0.857l-1.601,1.022         c-0.553,0.338-1.03,0.708-1.527,1.069c-0.487,0.367-1.006,0.714-1.463,1.096c-1.876,1.5-3.649,3.029-5.24,4.642         c-0.821,0.775-1.558,1.629-2.299,2.432c-0.375,0.393-0.709,0.844-1.054,1.259c-0.182,0.228-0.361,0.453-0.54,0.677         c-0.229,0.3-0.448,0.579-0.665,0.9c-0.434,0.639-0.86,1.268-1.279,1.886c-0.196,0.313-0.443,0.609-0.589,0.928         c0.032,0.365,0.063,0.726,0.095,1.084c0.067,0.714,0.133,1.413,0.198,2.096c0.033,0.321,0.066,0.638,0.099,0.951         c0.026,0.205,0.053,0.407,0.079,0.606c0.215,1.597,0.478,3.017,0.805,4.215c0.044,0.156,0.086,0.31,0.128,0.459         c0.053,0.219,0.105,0.432,0.155,0.641c0.105,0.412,0.213,0.794,0.323,1.144c0.235,0.693,0.421,1.285,0.732,1.69         c0,0,0.701,0.653,1.753,1.634c0.26,0.242,0.539,0.508,0.837,0.748c0.146,0.12,0.295,0.243,0.448,0.368         c0.127,0.1,0.257,0.202,0.389,0.306c0.528,0.417,1.088,0.862,1.672,1.255c2.286,1.665,4.711,3.032,4.711,3.032         c-2.93-2.09-4.098-3.308-4.443-3.773c-0.339-0.475,0.196-0.28,0.931,0.065c1.453,0.73,3.812,1.845,1.659-0.062         c2.215,1.61,5.04,3.734,6.68,4.983c1.659,1.211,1.95,1.793-1.118,0.183l-0.834-0.699c-0.762,0.034-0.229,0.666,1.034,1.597         c0.662,0.43,1.467,0.971,2.448,1.475c0.498,0.243,1.02,0.498,1.556,0.761c0.525,0.241,1.035,0.45,1.564,0.68         c4.208,1.799,8.685,3.632,8.292,4.102c12.676,5.1,25.094,10.372,37.305,15.583c6.107,2.601,12.165,5.181,18.167,7.737         c3.007,1.266,6,2.525,8.978,3.778l0.559,0.233c0.179,0.077,0.273,0.145,0.414,0.216l0.784,0.404         c0.528,0.259,1.037,0.711,1.565,1.041c0.513,0.39,0.992,0.867,1.497,1.285c0.475,0.466,0.914,0.981,1.379,1.461         c0,0-0.185-0.683-0.37-1.364c-0.176-0.723-0.467-1.371-0.466-1.371c0,0,0.092,0.081,0.254,0.224         c0.17,0.131,0.382,0.359,0.631,0.639c0.253,0.275,0.548,0.596,0.865,0.938c0.326,0.336,0.589,0.765,0.898,1.153         c0.643,0.771,1.084,1.649,1.481,2.271c0.21,0.309,0.297,0.593,0.392,0.781c0.086,0.19,0.135,0.299,0.135,0.299         c0.131,0.488,0.247,0.901,0.209,1.174c-0.036,0.272-0.121,0.398-0.256,0.322c-0.068-0.037-0.145-0.126-0.237-0.272         c-0.122-0.146-0.265-0.352-0.429-0.625c-0.171-0.271-0.335-0.616-0.569-1.03c-0.272-0.405-0.577-0.887-0.914-1.461         c0.462,1.393,1.605,3.173,2.272,4.741c0.782,2.155,1.604,3.896,1.765,3.951c2.218,12.285-2.586-4.41-1.775-0.671l1.24,5.044         l-0.106-1.177c1.458,3.988,2.102,4.226,3.722,11.708c0.807,4.783-0.253,2.604,0.116,4.476         c-0.094,0.01,0.004,0.648,0.606,2.862l2.365,10.998l0.036-4.619c1.603,4.749,2.274,10.329,2.293,5.004         c-0.014,0.98,0.109,2.356,0.337,4.024c0.114,0.834,0.254,1.741,0.416,2.708c0.084,0.482,0.17,0.98,0.259,1.493         c0.041,0.232,0.083,0.467,0.125,0.705l-0.01,0.097c-0.044,0.516,0.042,1.093,0.165,1.651c0.246,1.117,0.636,2.159,0.417,2.48         c0.921,0.601,1.08,1.363,1.202,2.325c0.161-0.282,1.282-0.683,1.324,0.161c-2.445,0.24-0.697,1.72-2.261,2.763         c1.003-0.843,0.801,2.244,2.205,0.961c-0.04,0.721-0.881,0.242-1.325,0.882c1.286,1.404,0.203,3.688,0.963,5.611         c0.319-0.039,0.722-0.48,1.283-0.158l-1.324,1.405c0.242,0.358,1.884-0.045,0.962,0.919c0.24-0.161,0.602-0.401,0.761-0.16         c-0.64,4.248,3.047,7.697,1.082,12.308c0.484-0.674,0.625-0.329,0.74,0.075c0.085-0.299,0.772-0.168,1.184-0.315         l-0.801,1.925c1.243,0.038,0.481,1.762,1.644,1.682l-0.321-0.479c1.483,0.399,2.725-1.644,4.449-1.925         c-1.684-0.442,1.766-2.567-0.681-3.365c0.283-0.361,0.603,0.118,0.963-0.122c-0.803-0.161-1.043-0.52-0.881-1.322         l0.199,0.042c-0.64-2.007-0.119-3.047-0.159-5.454l-0.803,0.36c0.001-0.52,0.242-0.684,0.4-0.963         c-1.403-0.278,0.241,1.404-1.281,1.205c1.563-1.041-0.76-3.49,1.084-4.372c-0.161-0.763-0.923,0.442-1.083-0.319l0.48-0.32         l-0.722-0.039c0-0.524,0.601-0.924,1.042-1.043c-0.025,0.133,0.203,0.315,0.27,0.437c0.474-0.786-0.623-1.774-0.471-2.042         l-0.16,0.804c-0.96-1.964-0.84-4.652-2.363-6.415l-0.363,0.241c-1.079-1.364,0.16-1.324-0.559-2.928l0.108,0.04         c-0.471-0.247-0.772-0.651-0.831-1.122c0.561,0.32,0.723-1.002,1.363-0.562c-1.163-1.481-0.805-0.681-2.527-1.444         l0.601-0.401c-0.679-0.239-1.001-0.199-1.36-1c0.72,0.561,0.882-0.763,1.803-0.16c0.521-1.043,0.01-1.614-0.391-2.086         c-0.2-0.235-0.373-0.446-0.375-0.678c-0.001-0.116,0.04-0.237,0.142-0.369c0.025-0.033,0.055-0.067,0.088-0.102l0.053-0.053         l-0.008-0.353c-0.007-0.473,0.003-0.946,0.034-1.423c-0.859-1.687-1.162-1.673-1.153-0.765         c0.004,0.454,0.087,1.132,0.217,1.933c0.034,0.199,0.069,0.407,0.105,0.621l0.029,0.161l-0.002,0.02l-0.004,0.04         c-0.004,0.054-0.004,0.109-0.002,0.165c0.022,0.441,0.233,0.888-0.013,0.706c-0.254,0.256-0.633,0.166-0.94-0.063         c-0.153-0.114-0.289-0.263-0.383-0.42c-0.023-0.04-0.044-0.08-0.062-0.12c-0.083-0.34-0.164-0.676-0.244-1.004         c-0.166-0.714-0.311-1.396-0.426-2.012c-1.082-4.987,0.421-8.991-2.438-21.506c0.273,1.249,0.43,1.302,0.702,2.547         c-0.592-4.792-2.701-9.04-3.243-14.96c-1.829-2.974-1.621-7.478-3.235-8.089l2.916,11.413         c-0.918-3.215-2.133-6.256-3.321-9.856c-0.297-0.9-0.592-1.835-0.881-2.817c-0.122-0.474-0.34-1.035-0.531-1.583         c-0.204-0.547-0.36-1.132-0.653-1.654c-0.259-0.54-0.523-1.093-0.795-1.66c-0.318-0.535-0.645-1.083-0.98-1.646         c-0.307-0.585-0.736-1.099-1.118-1.674c-0.196-0.285-0.395-0.574-0.596-0.866c-0.224-0.275-0.451-0.555-0.682-0.838         c0.904,0.391,3.363,2.969,4.667,5.169c-0.615-1.721-1.639-3.139-2.767-4.436c-1.132-1.306-2.369-2.496-3.667-3.851         c0.849-0.221,4.164,2.325,6.71,6.687c0.353,0.514,0.598,1.146,0.895,1.739c0.286,0.604,0.589,1.202,0.785,1.903l0.327,1.02         c0.099,0.326,0.237,0.723,0.288,0.973c0.141,0.559,0.281,1.115,0.419,1.667c0.57,2.202,1.181,4.295,1.843,5.979         c-0.083-1.751-1.082-4.993-1.771-7.402c-0.136-0.539-0.418-1.319-0.596-1.871c-0.19-0.57-0.323-1.039-0.396-1.339         c-0.089-0.285-0.085-0.435,0.043-0.406c0.124,0.034,0.401,0.213,0.753,0.722c-2.076-2.741-3.864-5.749-6.708-8.832         c-0.69-0.777-1.542-1.475-2.362-2.23c-0.458-0.342-0.938-0.676-1.423-1.012l-0.738-0.498         c-0.254-0.162-0.553-0.291-0.833-0.435c-0.566-0.277-1.16-0.556-1.737-0.801c-0.484-0.17-0.977-0.335-1.478-0.49         c-1.002-0.313-2.041-0.593-3.119-0.826l0.856-0.584c-1.326-0.392-4.121-1.086-6.459-2.059l4.669,0.687         c-6.88-1.762-12.258-5.877-18.709-7.934c13.107,5.291,2.549,2.156,7.849,4.989c-16.588-5.485-8.44-5.864-26.681-12.82         c2.494,0.881,8.997,4.211,5.017,3.028c-3.375-1.563-7.798-3.715-9.741-4.992c-12.049-4.697,1.506,1.569-3.794-0.009         c-3.685-2.631-6.045-1.991-11.425-3.811l0.293-0.829c-6.721-3.032-7.798-2.976-8.7-2.863         c-0.451,0.056-0.857,0.126-1.904-0.17c-0.523-0.147-1.206-0.387-2.135-0.764c-0.894-0.402-1.895-0.834-3.231-1.687         c0,0,1.304,0.395,2.551,0.586c1.363,0.242,2.727,0.484,2.727,0.484s-0.408-0.145-1.02-0.361         c-0.294-0.107-0.689-0.237-1.019-0.367c-0.327-0.129-0.675-0.267-1.023-0.404c-0.697-0.242-1.413-0.636-1.945-0.873         c-0.536-0.244-0.889-0.438-0.89-0.438c0,0,0.409-0.038,0.815-0.112c0.401-0.068,0.802-0.136,0.802-0.136         c-3.127-1.302-5.137-2.57-6.946-3.919c-0.457-0.338-0.875-0.71-1.322-1.081c-0.452-0.369-0.89-0.767-1.321-1.204         c-0.533-0.518-0.697-0.684-0.877-0.929c-0.092-0.117-0.187-0.238-0.286-0.365c-0.093-0.126-0.023-0.331-0.042-0.499         c-0.274,0.409-0.661,0.559-1.04-0.043c-0.175-0.135-0.411-1.16-0.615-2.268c-0.104-0.563-0.202-1.19-0.294-1.88         c-0.042-0.345-0.087-0.705-0.133-1.08c-0.031-0.287-0.063-0.587-0.096-0.897c0.145-1.311,0.397-0.83,0.526-0.813         c0.083,0.024,0.027-0.062,0.288-0.345c0.11-0.147,0.255-0.355,0.449-0.65c0.164-0.205,0.735-0.997,1.38-1.809         c-0.219,0.455-0.376,0.941-0.598,1.426c-0.051,0.116-0.103,0.234-0.156,0.354l-0.069,0.228         c-0.059,0.156-0.069,0.273-0.119,0.405c-0.054,0.263-0.314,0.464-0.241,0.798c-0.006,0.388-0.114,0.399-0.204,1.667         c0.322,0.386,0.733,2.003,1.052,2.4c0.021-0.604,0.022-1.243,0.008-1.908c-0.011-0.332-0.022-0.671-0.033-1.015l-0.024-0.515         l0.004-0.151c0.014-0.198-0.031-0.406,0.004-0.595c0.111-0.172,0.222-0.345,0.332-0.516c0.303-0.416,0.601-0.826,0.889-1.222         c0.357-0.478,0.746-0.931,1.088-1.366c0.675-0.878,1.385-1.592,1.894-2.162c-0.843,0.834-1.838,1.836-2.382,2.313         c0,0,0.11-0.158,0.303-0.433c0.19-0.277,0.464-0.673,0.83-1.129c0.36-0.458,0.765-1.009,1.23-1.574         c0.475-0.559,0.981-1.155,1.488-1.751c0.53-0.571,1.061-1.142,1.558-1.676c0.515-0.5,0.996-0.968,1.408-1.368         c0.415-0.396,0.768-0.666,1.013-0.886c0.246-0.212,0.387-0.333,0.387-0.333c1.895-0.839,0.556,0.315-0.388,1.307         c0.483-0.353,0.827-0.673,1.33-1.051c0.494-0.38,0.983-0.757,1.503-1.158c1.041-0.803,2.218-1.689,3.886-2.788         c-0.493,1.155,0.11,1.646-4.489,4.952l10.376-7.5c0.887-0.194,5.999-2.785,4.737-1.676         c6.212-3.433,13.947-10.46,22.182-15.013c0.338-0.377,1.095-1.013,2.729-2.167c7.546-4.582,14.624-8.021,22.943-14.441         c0,0,1.425-0.523,2.851-1.046c0.356-0.131,0.713-0.262,1.047-0.384c0.168-0.062,0.33-0.122,0.483-0.178         c0.197-0.099,0.383-0.193,0.556-0.279c0.691-0.36,1.153-0.601,1.153-0.601c0.277-0.224,0.528-0.427,0.755-0.611         c0.21-0.19,0.367-0.369,0.52-0.526c0.298-0.317,0.514-0.564,0.662-0.751c0.296-0.375,0.324-0.511,0.191-0.502         c-0.266,0.02-1.175,0.605-1.917,1.007c-0.84,0.375-1.48,0.573-1.057,0.013c0.105-0.14,0.275-0.328,0.521-0.573         c0.218-0.251,0.496-0.572,0.846-0.976c0.339-0.403,0.818-0.849,1.264-1.436c0.444-0.589,0.992-1.253,1.571-2.047         c3.008-4.626,3.332-5.651,3.799-5.597c0.394,0.016,0.489,0.958,1.487-0.865c0.187-0.731,0.347-1.56,0.526-2.424         c0.103-0.419,0.15-0.909,0.195-1.412c0.044-0.497,0.089-1.009,0.136-1.535l0.032-0.394l0-0.312c0-0.207,0-0.416-0.001-0.627         c0.002-0.423,0.005-0.856,0.008-1.298c0.011-0.884,0.033-1.806,0.072-2.756c0.155-3.805,0.578-8.091,1.601-12.44         C143.672,171.414,143.222,173.682,143.004,176.419z M163.375,86.795c-0.09,0.063-0.191,0.135-0.3,0.212l-0.08,0.059         l-0.04,0.03l-0.104,0.056c-0.14,0.075-0.284,0.152-0.432,0.231c-0.588,0.314-1.226,0.65-1.856,0.958         c-1.26,0.618-2.492,1.129-3.252,1.157c0.845-0.884,1.713-1.376,2.77-1.77c0.529-0.197,1.104-0.369,1.748-0.554         c0.322-0.092,0.661-0.188,1.02-0.291C163.014,86.856,163.189,86.826,163.375,86.795z M294.063,141.97         c-1.366,0.578-3.602,0.892-6.156,1.078C289.697,142.605,291.749,142.216,294.063,141.97z M244.474,381.685         c0.048-0.069,0.082-0.118,0.116-0.179C247.911,378.648,246.724,379.652,244.474,381.685z M237.81,387.851         c-0.556,0.733-0.425,0.774-0.066,0.588c0.289-0.605,1.713-2.062,3.392-3.663C240.519,385.071,239.58,385.79,237.81,387.851z          M152.172,348.139l-0.165-1.772C153.131,350.2,152.663,349.161,152.172,348.139z" style="fill:#202020;"/><path d="M277.245,146.659c-0.573-0.034-0.757-0.164-0.917-0.299         C275.604,146.66,275.622,146.831,277.245,146.659z" style="fill:#202020;"/><path d="M101.063,223.474l-0.265,0.155c-0.114,0.135-0.163,0.229-0.178,0.3L101.063,223.474z" style="fill:#202020;"/><path d="M290.916,293.784c-1.297-1.35-1.96-2.17-2.36-2.758         C288.336,291.116,288.842,291.821,290.916,293.784z" style="fill:#202020;"/><path d="M204.134,423.2c0,0,0.318-0.235,0.782-0.648c0.464-0.406,1.083-0.948,1.701-1.49         c0.611-0.605,1.222-1.211,1.68-1.664c0.378-0.407,0.63-0.679,0.63-0.679c-0.255,0.26-0.445,0.468-0.708,0.71         c-0.262,0.238-0.502,0.456-0.726,0.659c-0.453,0.396-0.844,0.74-1.203,1.005c-0.718,0.507-1.298,0.87-1.958,1.313         C204.566,422.468,205.734,421.947,204.134,423.2z" style="fill:#202020;"/><path d="M181.629,424.019c-0.122,0.076-0.199-0.045-0.32,0.033l-0.087,0.399         C181.622,424.538,181.988,424.302,181.629,424.019z" style="fill:#202020;"/><path d="M197.73,424.013c-0.408-0.205-1.355,0.27-2.71,0.983c-0.688,0.342-1.428,0.814-2.301,1.236         c-0.445,0.225-0.907,0.458-1.381,0.696c-0.528,0.274-1.167,0.505-1.767,0.766c0.295-0.114,0.575-0.222,0.87-0.336         c-0.292,0.39-0.205,0.541,0.22,0.492c0.411-0.024,1.218-0.346,1.87-0.651c0.356-0.166,0.752-0.358,1.17-0.579         c0.401-0.24,0.832-0.498,1.282-0.768C195.89,425.321,196.807,424.658,197.73,424.013z" style="fill:#202020;"/><path d="M188.433,428.161c-0.048,0.014-0.094,0.051-0.143,0.046l-0.147-0.039l-0.295-0.077         l-0.593-0.158l-1.189-0.325c-0.363-0.104-0.725-0.207-1.084-0.31l-0.421-0.128l-0.047-0.024         c-0.042,0.096-0.053,0.151-0.043,0.182c0.005,0.015,0.015,0.023,0.03,0.026c0.105,0.025,0.231,0.055,0.374,0.088         c0.429,0.095,0.959,0.211,1.55,0.34c0.313,0.07,0.643,0.145,0.982,0.221c0.168,0.039,0.339,0.078,0.512,0.118l0.259,0.063         l0.13,0.031L188.433,428.161z" style="fill:#202020;"/><path d="M230.05,396.357c-1.496,1.235-0.184,1.524-1.167,2.088         C228.031,400.637,237.145,388.514,230.05,396.357z" style="fill:#202020;"/><path d="M193.601,423.566c0,0,0.432,0.028,0.864,0.057c0.437,0.031,0.869,0.042,0.87,0.042         l1.604-1.807c0,0-0.829,0.44-1.657,0.881c-0.41,0.227-0.832,0.431-1.151,0.576         C193.812,423.466,193.601,423.566,193.601,423.566z" style="fill:#202020;"/><path d="M218.207,403.059l-4.762,4.436c0.178,0.038-0.341,0.688-1.007,1.455         C215.282,406.128,218.506,403.14,218.207,403.059z" style="fill:#202020;"/><path d="M212.438,408.949c-1.484,1.468-2.87,2.891-3.581,3.819         C209.645,411.961,211.336,410.216,212.438,408.949z" style="fill:#202020;"/><path d="M200.927,418.579c0,0,0.407-0.253,0.807-0.519c0.402-0.265,0.805-0.529,0.805-0.529         s0.224-0.179,0.561-0.445c0.319-0.288,0.745-0.671,1.171-1.054c0.433-0.376,0.834-0.788,1.144-1.087         c0.308-0.301,0.513-0.501,0.513-0.501c0,0-1.174,1.137-2.425,2.169c-0.599,0.546-1.283,0.994-1.76,1.368         C201.259,418.348,200.927,418.579,200.927,418.579z" style="fill:#202020;"/><path d="M268.79,355.814c0.001,0.001,1.588-0.686,3.26-1.134c0.824-0.268,1.68-0.367,2.311-0.52         c0.317-0.077,0.583-0.099,0.77-0.11c0.187-0.016,0.293-0.024,0.293-0.024c0.34-0.173,0.044-0.284-0.678-0.322         c-0.357,0.013-0.817,0.073-1.349,0.152c-0.533,0.073-1.135,0.185-1.757,0.404c-0.395,0.152-0.843,0.324-1.277,0.492         c-0.434,0.164-0.833,0.384-1.16,0.542C268.552,355.628,268.238,355.852,268.79,355.814z" style="fill:#202020;"/><path d="M250.701,367.055c1.487-1.228,1.723-1.176,2.697-1.731l-0.649-0.95L250.701,367.055z" style="fill:#202020;"/><path d="M267.062,353.502c0.147-0.137,0.848-0.489,1.684-0.891c0.822-0.435,1.858-0.732,2.548-1.028         c0.69-0.291,1.112-0.397,0.706-0.39c-0.206-0.004-0.585,0.098-1.226,0.249c-0.636,0.162-1.54,0.359-2.68,0.81         c-0.158,0.141-0.729,0.418-1.377,0.735c-0.627,0.361-1.333,0.77-1.828,1.056         C263.924,354.657,263.844,354.792,267.062,353.502z" style="fill:#202020;"/><polygon points="284.882,284.108 286.228,285.312 287.282,283.766        " style="fill:#202020;"/><path d="M304.449,224.263c-8.315,1.336-1.712,1.539-9.259,2.597c-1.837,0.845,6.168-0.866,4.269-0.069         C304.324,225.27,306.985,224.964,304.449,224.263z" style="fill:#202020;"/><path d="M299.459,226.791c-0.78,0.243-1.604,0.511-2.474,0.821         C298.398,227.189,299.057,226.957,299.459,226.791z" style="fill:#202020;"/><polygon points="163.958,404.655 163.716,405.337 164.237,404.814        " style="fill:#202020;"/><path d="M165.558,405.497l-1.121,0.4l1.124,0.123C165.479,405.897,165.321,405.658,165.558,405.497z" style="fill:#202020;"/><path d="M173.074,93.234l0.459-0.062c-0.241-0.318-0.603-0.625-1.144-1         c-0.564-0.35-1.312-0.774-2.323-1.308c0,0,0.201,0.133,0.486,0.359c0.287,0.22,0.669,0.514,1.052,0.808         c0.387,0.286,0.756,0.586,1.021,0.822C172.894,93.082,173.074,93.234,173.074,93.234z" style="fill:#202020;"/><polygon points="148.791,134.068 148.958,132.817 147.628,135.039        " style="fill:#202020;"/><path d="M139.869,197.629c1.702-2.667,3.072-6.132,3.84-9.637c-0.75,3.816-2.262,6.114-3.226,7.558         C139.513,196.989,139.081,197.626,139.869,197.629z" style="fill:#202020;"/></g></g></g></g><g><g><g><g><path d="M467.836,240.528c0.266,0.243,0.589-0.452,0.713-0.536         C467.925,239.801,467.743,240.704,467.836,240.528z" style="fill:#202020;"/><polygon points="462.384,239.707 462.581,239.453 461.644,239.888        " style="fill:#202020;"/><path d="M458.209,238.209c0.001,1.37,1.586,0.265,2.181,0.994l0.021,0.323l0.694-0.86         C460.132,238.468,458.738,238.752,458.209,238.209z" style="fill:#202020;"/><path d="M456.672,234.843c0.017,0.529-0.625,0.281,0.513,0.304c-0.039-0.067-0.046-0.103-0.066-0.15         C457.021,234.978,456.888,234.94,456.672,234.843z" style="fill:#202020;"/><path d="M457.118,234.997C457.598,235.09,456.923,234.502,457.118,234.997L457.118,234.997z" style="fill:#202020;"/><path d="M454.865,234.722l0.735-0.293c-0.061-0.321-0.613-0.516-0.353-0.679         C454.535,233.839,454.61,234.161,454.865,234.722z" style="fill:#202020;"/><path d="M454.065,235.512l0.362-0.113C454.399,235.264,454.322,235.202,454.065,235.512z" style="fill:#202020;"/><path d="M455.202,235.163l-0.774,0.236c0.043,0.226-0.044,0.637,0.345-0.07         C454.63,235.69,454.847,235.361,455.202,235.163z" style="fill:#202020;"/><path d="M455.542,235.444c0.28,0.358,0.666,0.656-0.048,0.924         C456.686,236.511,456.765,235.577,455.542,235.444z" style="fill:#202020;"/><path d="M457.602,239.426l0.313,0.499l0.501-0.298C458.166,239.774,457.694,239.029,457.602,239.426z" style="fill:#202020;"/><path d="M450.992,233.281c-0.077,0.268,0.083,0.757,0.086,1.118l0.525-0.229         C451.387,233.938,450.944,233.685,450.992,233.281z" style="fill:#202020;"/><path d="M451.078,234.399c-0.021-0.008-0.718,0.37-0.718,0.37         C450.913,234.906,451.069,234.707,451.078,234.399z" style="fill:#202020;"/><polygon points="453.646,236.896 454.971,236.176 453.434,236.861        " style="fill:#202020;"/><polygon points="448.564,232.882 449.021,232.304 448.233,233.163        " style="fill:#202020;"/><path d="M446.934,232.751c0.346-0.484-0.233-0.942,0.098-1.222c-0.453,0.028-0.895,0.422-1.292,0.776         C446.131,232.133,446.504,232.248,446.934,232.751z" style="fill:#202020;"/><path d="M445.084,232.81c0.198-0.099,0.417-0.296,0.655-0.505         C445.53,232.397,445.317,232.543,445.084,232.81z" style="fill:#202020;"/><path d="M449.295,234.471c-0.024-0.172-0.055-0.62-0.384-0.855l0.135,0.807         C449.122,234.437,449.208,234.454,449.295,234.471z" style="fill:#202020;"/><path d="M449.051,234.448l-0.005-0.026c-0.269-0.063-0.455-0.105-0.535-0.124         C448.579,234.317,448.742,234.362,449.051,234.448z" style="fill:#202020;"/><path d="M449.358,234.484c-0.023-0.005-0.041-0.008-0.063-0.013         C449.308,234.55,449.318,234.578,449.358,234.484z" style="fill:#202020;"/><path d="M452.008,235.853c-0.488,0.354-1.378,0.67-0.692,1.465         C451.688,236.844,451.288,236.389,452.008,235.853z" style="fill:#202020;"/><path d="M449.525,235.492l0.649,0.277c0.018-0.205-0.06-0.52,0.157-0.705L449.525,235.492z" style="fill:#202020;"/><polygon points="449.157,235.686 449.525,235.492 449.284,235.389        " style="fill:#202020;"/><path d="M446.136,233.703c-0.343,0.291-0.667,0.271-1.036,0.271c0.365,0.209,0.753,0.35,1.133,0.406         C446.322,234.146,446.555,233.738,446.136,233.703z" style="fill:#202020;"/><path d="M447.542,234.133c-0.021,0.01-0.051,0.024-0.071,0.034         C447.501,234.238,447.53,234.264,447.542,234.133z" style="fill:#202020;"/><path d="M441.545,233.436c0.012,0.05,0.023,0.096,0.036,0.148c0.011-0.044,0.021-0.083,0.032-0.131         L441.545,233.436z" style="fill:#202020;"/><path d="M446.276,234.533c0.269,0.192,0.471,0.03,0.672-0.183c-0.229,0.045-0.467,0.061-0.716,0.03         C446.192,234.486,446.177,234.557,446.276,234.533z" style="fill:#202020;"/><path d="M444.038,233.021c0.128,0.184,0.279,0.345,0.44,0.498         C444.367,233.253,444.122,232.828,444.038,233.021z" style="fill:#202020;"/><path d="M447.404,233.939c0.017-0.01,0.032-0.022,0.049-0.028         C447.383,233.732,447.383,233.815,447.404,233.939z" style="fill:#202020;"/><path d="M447.404,233.939c-0.166,0.089-0.313,0.26-0.456,0.411c0.187-0.034,0.363-0.092,0.522-0.184         C447.443,234.107,447.419,234.019,447.404,233.939z" style="fill:#202020;"/><path d="M439.727,238.211c0.158-0.705,1.022-1.25,1.568-0.386c0.729-0.436,0.656-2.845,0.286-4.241         c-0.067,0.308-0.11,0.595-0.842,0.916c0.176,0.424,1.347,1.133,0.687,1.693c-0.941,0.234-0.688-0.361-1.063-0.803         c0.232,0.943-1.321,1.124-1.324,2.459l0.846-0.343C439.869,237.711,439.539,237.994,439.727,238.211z" style="fill:#202020;"/><path d="M442.844,233.848l0.289-0.047c-0.296-0.171-0.478-0.49-0.808-1.11         c-0.51,0.279-0.645,0.53-0.712,0.762l1.341,0.302L442.844,233.848z" style="fill:#202020;"/><path d="M444.368,233.983c-0.331,0.743-1.041,0.974-0.763,1.874c0.816,0.068,0.663-0.563,1.196-0.827         c-1.332-0.003,0.439-0.376-0.437-0.957c0.276-0.093,0.513-0.1,0.734-0.099c-0.221-0.13-0.429-0.281-0.621-0.456         c0.01,0.021,0.016,0.036,0.023,0.053l0.006-0.001l-0.003,0.012c0.042,0.105,0.052,0.167-0.003,0.101         c-0.006,0.009-0.022,0.01-0.03,0.012c-0.024,0.106-0.063,0.197-0.103,0.284c-0.354-0.217-0.029-0.21,0.103-0.284         c0.011-0.037,0.026-0.072,0.033-0.113l-0.003-0.011l-1.369,0.229C443.393,233.95,443.742,233.979,444.368,233.983z" style="fill:#202020;"/><path d="M450.337,238.856c-0.03-0.075-0.021-0.13-0.015-0.187         C450.224,238.752,450.182,238.811,450.337,238.856z" style="fill:#202020;"/><path d="M449.87,238.307c0.11-0.094,0.236-0.393,0.533-0.266c0.236,0.28-0.059,0.371-0.081,0.629         c0.215-0.174,0.75-0.439,0.209-0.922l-0.11,0.09c-0.485-0.345-1.016-1.414-0.907-1.507         C449.562,237.052,449.623,237.57,449.87,238.307z" style="fill:#202020;"/><path d="M447.052,236.337l-1.144,0.217l0.452,0.754l0.033-0.408         C446.987,237.152,446.929,236.636,447.052,236.337z" style="fill:#202020;"/><polygon points="441.478,233.031 441.745,232.233 440.943,233.296        " style="fill:#202020;"/><polygon points="440.051,232.917 440.21,232.212 439.772,232.586        " style="fill:#202020;"/><path d="M341.55,352.668l1.353-0.857C342.248,352.186,341.84,352.452,341.55,352.668z" style="fill:#202020;"/><path d="M331.105,357.486l-0.104,0.437C331.399,357.529,331.538,357.3,331.105,357.486z" style="fill:#202020;"/><path d="M329.146,230.985c-0.188,0.006-0.379,0.012-0.568,0.019c-0.119-0.064-0.238-0.128-0.354-0.19         l-0.14-0.074c-0.034-0.01-0.014-0.022-0.09-0.028l-0.205-0.019c-0.271-0.02-0.525-0.038-0.759-0.055         c-0.932-0.049-1.508,0.015-1.286,0.382l0.86,0.623c0.388-0.119,0.756-0.22,1.105-0.304c0.152-0.041,0.398-0.083,0.46-0.112         c0.053-0.028,0.104-0.048,0.157-0.062c0.107-0.033,0.206-0.021,0.336-0.031C328.825,231.07,328.985,231.023,329.146,230.985z         " style="fill:#202020;"/><path d="M313.786,294.401c-0.066-0.229-0.137-0.467-0.206-0.703c-0.523-0.324-1.109-0.523-1.59-0.703         c0.281,0.188,0.597,0.382,0.905,0.611C313.182,293.862,313.48,294.129,313.786,294.401z" style="fill:#202020;"/><path d="M317.499,294.126c0,0,0.312,0.83,0.624,1.66c0.157,0.41,0.237,0.844,0.33,1.156         c0.082,0.314,0.137,0.524,0.137,0.524c-0.068-0.389-0.173-0.857-0.322-1.419         C318.077,295.501,317.817,294.867,317.499,294.126z" style="fill:#202020;"/><path d="M403.623,348.735l2.02-0.072C402.941,347.607,403.981,348.452,403.623,348.735z" style="fill:#202020;"/><path d="M390.304,198.931c-0.741-1.88-1.432-3.317-2.104-4.542         C389.023,196.694,389.416,198.713,390.304,198.931z" style="fill:#202020;"/><path d="M340.99,362.175c0.821-0.541,1.13-0.862,1.029-1.01         C341.17,361.711,340.721,362.087,340.99,362.175z" style="fill:#202020;"/><path d="M385.267,189.397c0.132,0.341,0.26,0.672,0.394,1.019c0.852,1.193,1.685,2.408,2.54,3.973         C387.587,192.678,386.77,190.836,385.267,189.397z" style="fill:#202020;"/><path d="M455.554,256.6c0.046,0,0.081-0.016,0.131-0.01         C455.608,256.514,455.578,256.542,455.554,256.6z" style="fill:#202020;"/><path d="M469.211,249.004c-0.005,0.172-0.084,0.45-0.16,0.684         C469.145,249.596,469.206,249.386,469.211,249.004z" style="fill:#202020;"/><path d="M414.803,228.722C415.784,228.91,414.974,228.671,414.803,228.722L414.803,228.722z" style="fill:#202020;"/><path d="M421.188,232.898c-0.327,0.041-0.581,0.117-0.646,0.292         C420.691,233.02,420.915,232.931,421.188,232.898z" style="fill:#202020;"/><path d="M372.621,179.704c-0.026-0.035-0.048-0.062-0.079-0.102         C372.701,180.043,372.676,179.965,372.621,179.704z" style="fill:#202020;"/><path d="M416.647,229.423c-0.27-0.089-0.561-0.178-0.87-0.264c-0.14-0.044-0.347-0.083-0.444-0.13         c-0.109-0.043-0.22-0.087-0.334-0.132c0.106,0.054,0.215,0.127,0.462,0.217C415.764,229.192,416.152,229.294,416.647,229.423         z" style="fill:#202020;"/><path d="M416.404,229.009c0.504,0.106,0.9,0.189,1.277,0.269         C417.887,229.176,417.734,229.069,416.404,229.009z" style="fill:#202020;"/><path d="M413.381,228.359c0.62,0.261,1.121,0.35,1.618,0.538c-0.184-0.1-0.254-0.161-0.196-0.174         C414.509,228.647,414.121,228.66,413.381,228.359z" style="fill:#202020;"/><path d="M423.756,292.704c0.07-0.09,0.14-0.198,0.222-0.292         C424.416,290.749,424.138,291.44,423.756,292.704z" style="fill:#202020;"/><path d="M294.254,247.1c0.066-0.022,0.099-0.051,0.158-0.073c-0.07,0.006-0.158,0.014-0.222,0.02         L294.254,247.1z" style="fill:#202020;"/><path d="M289.405,248.816c1.678-1.459,3.063-1.61,4.785-1.77l-2.209-1.854         c0,0-0.178,0.226-0.443,0.564c-0.271,0.336-0.625,0.79-0.931,1.248c-0.305,0.452-0.61,0.903-0.839,1.242         C289.551,248.588,289.405,248.816,289.405,248.816z" style="fill:#202020;"/><path d="M367.025,340.854c0,0-1.062,0.156-2.123,0.381c-1.062,0.214-2.129,0.505-2.129,0.504         c2.163-1.625,4.3-2.469,5.33-2.938c1.032-0.457,0.94-0.609-1.236-0.487c0.027,0.643-0.979,1.275-2.437,2.034         c-0.731,0.37-1.568,0.793-2.462,1.244c-0.771,0.383-1.588,0.789-2.405,1.195c-3.282,1.602-6.563,3.202-6.278,4.431         l-2.466,0.577c0.654-0.278,0.695-0.459,1.342-0.733c-4.867,0.965-2.488,3.134-8.264,5.44         c-2.04,0.743-3.561,1.056-2.348,0.167l-4.11,2.592c-1.292,0.55-1.162,0.016,0.123-0.532l-6.579,3.283l0.019-0.088         c-0.779,0.775-2.676,2.285-3.621,2.99c-1.832,0.437,0.739-0.62,0.181-0.706l-3.433,2.195         c-0.867,0.004-0.611-0.422,0.187-1.021c0.801-0.606,2.139-1.354,3.423-1.882c-2.216-0.355-2.903,0.125-4.044,0.949         c-0.563,0.4-1.224,0.848-2.241,1.322c-0.496,0.23-1.127,0.483-1.782,0.691c-0.181,0.043-0.373,0.077-0.573,0.099         c-0.07,0.002,0.05-0.053,0.078-0.082c0.055-0.019-0.014-0.038-0.052-0.059l-0.12-0.063c0,0,0.078-0.02,0.195-0.05         c-0.03-0.015-0.101-0.031-0.162-0.05c-0.063-0.002-0.014-0.032,0.036-0.062l0.129-0.086c0.085-0.056,0.169-0.112,0.248-0.165         c0.017-0.017,0.121-0.07,0.21-0.115c0.087-0.046,0.169-0.088,0.245-0.128c0.304-0.157,0.507-0.262,0.507-0.262         c-0.334-0.052-0.662-0.073-0.99-0.069c-0.209,0.02-0.189-0.048-0.28-0.063l-0.186-0.069l-0.16-0.05         c0.095-0.033,0.196-0.063,0.305-0.09c0.171-0.027,0.053-0.052,0.05-0.074l-0.071-0.063c-0.149-0.157-0.396-0.265-0.053-0.722         c-0.248,0.213-0.534,0.798-0.356,1.379c0.11,0.574,0.589,1.177-0.462,1.463c-0.238-0.106-0.495-0.185-0.854-0.225         c-0.178-0.023-0.393-0.025-0.628-0.081c-0.183-0.105-0.234-0.304-0.417-0.477c0.39-0.315,0.496-0.649,0.479-1.011         c-0.009-0.184-0.051-0.381-0.103-0.612l-0.042-0.177c-0.031-0.156-0.063-0.316-0.095-0.479         c-0.063-0.329-0.13-0.669-0.197-1.019l1.181,0.003c-0.428-1.487-0.714-2.061-1.057-2.563         c-0.16-0.209-0.348-0.561-0.462-0.473c-0.069-0.007-0.144-0.019-0.229-0.041c-0.042-0.013-0.087-0.026-0.135-0.041         l-0.019-0.007l-0.009-0.004c-0.016-0.002,0.027,0.002-0.035-0.005l-0.251-0.027c-0.672-0.074-1.354-0.161-2.047-0.261         c-0.347-0.053-0.696-0.105-1.048-0.159l-0.265-0.043l-0.066-0.011c-3.28-0.433,4.43,0.582,3.638,0.478v-0.002l-0.001-0.005         l-0.003-0.021l-0.014-0.088c0.569-3.466,1.558-4.07,2.419-4.79c0.912-5.551-1.938,3.66-1.292-2.966         c1.049-4.578,1.002-7.895,1.036-13.53c0.822-3.192,0.632,0.66,1.115-0.461l-0.545-2.996c0.114-0.701,0.367-0.437,0.495-0.303         c-0.04-2.47-1.128-0.351-0.943-4.202c-1.137-1.193,2.881-7.577,2.054-12.482c0.479-1.118,0.634,0.654,1.128,0.357         c-0.021-1.648-0.035-2.825-0.046-3.748c-0.016-0.939-0.004-1.525-0.08-2.378c-0.123-1.547-0.303-2.943-1.513-5.719         c0,0-0.022-1.28-0.26-2.529c-0.148-1.276-0.512-2.518-0.511-2.518c0.165,0.951,0.103,1.393-0.125,1.487         c-0.205,0.087-0.566-0.175-1.021-0.634c-0.882-0.931-2.183-2.64-3.657-3.919c0.397,1.191,0.461,2.288,0.646,2.929         c0,0-0.209-0.296-0.521-0.741c-0.155-0.22-0.337-0.477-0.53-0.751c-0.224-0.249-0.461-0.515-0.698-0.78         c-0.234-0.262-0.468-0.524-0.687-0.771c-0.247-0.209-0.477-0.404-0.674-0.572c-0.388-0.329-0.646-0.549-0.646-0.549         c-0.321-0.617,0.309-0.536,1.314-0.171c-0.344-0.225-0.664-0.429-0.921-0.575c-1.289-1.734-0.022-1.568,1.556-0.899         c0.358,0.754,0.77,1.418,0.955,2.178c0.709,0.406,1.494,0.798,2.065,1.067c0.571,0.268,1.036,0.353,1.249,0.033         c-0.164-0.157-0.371-0.403-0.601-0.703c-0.258-0.288-0.557-0.623-0.851-0.982c0.409,0.242,0.716,0.381,0.693,0.147         c-0.044-0.253-0.643-0.723-1.569-1.401c0,0-0.019-0.498-0.063-1.021c-0.041-0.52-0.109-1.061-0.109-1.061l-0.64,0.076         c-0.051-0.098-1.327-1.495-2.65-2.985c-1.313-1.468-2.626-2.936-2.626-2.936c-5.026-2.804-9.928-4.662-16.871-10.25         c2.273,0.78,1.396-0.831,2.244-1.585c0.993,2.517,5.44,4.261,8.688,7.542c-1.695-1.712-0.943-1.753-0.364-1.48l-6.815-4.729         c0.758-0.557-0.826-1.686-2.159-3.413c-0.013,1.221-1.351,0.414-3.042-0.928c-0.846-0.67-1.78-1.475-2.681-2.227         c-0.45-0.375-0.893-0.738-1.312-1.063c-0.438-0.34-0.727-0.551-1.063-0.787c0.15-0.284,0.474-0.391,1.037-0.146         c0.558,0.23,1.608,1.016,3.049,2.428c-0.603-1.012-1.263-1.663-1.954-2.131c-0.349-0.237-0.708-0.432-0.988-0.535         c-0.323-0.135-0.638-0.267-0.953-0.397c-1.294-0.557-2.68-1.264-3.478-3.312c0.577,0.756,0.829,1.213,1.304,1.311         c-0.906-0.683-2.085-2.219-2.792-3.511c-0.72-1.29-0.988-2.288-0.454-1.886l0.49,0.779c-0.188-0.333-0.387-0.687-0.597-1.06         c-0.096-0.179-0.194-0.362-0.294-0.548c-0.061-0.12-0.121-0.242-0.184-0.366c-0.25-0.516-0.51-1.071-0.701-1.676         c-0.171-0.581-0.378-1.317,0.002-1.878c0.462-0.445,0.996-0.804,1.519-1.162c0.261-0.183,0.552-0.347,0.82-0.525         c0.146-0.091,0.248-0.168,0.429-0.271c0.206-0.113,0.409-0.225,0.608-0.333c0.795-0.453,1.523-0.867,2.154-1.225         c1.253-0.764,2.117-1.321,2.218-1.785c0.115,0.171-0.195,2.042-0.434,2.455c1.441-1.443,2.986-2.803,4.663-4.083l5.219-3.792         c-0.737,1.519,3.831,3.775-1.376,5.663c1.58-0.146,3.532-0.34,6.682-1.496c-1.091,0.041-3.023-1.316-1.613-1.744         c4.254,0.6,2.904,0.186,8.027,0.375c-1.635,0.06-0.322-2.355,2.181-2.825c-0.323,0.389,0.64,1.967-0.225,2.375l5.766-3.333         c-1.469,0.693,0.092,1.754,1.6,2.022c-0.728-0.253,5.364-1.114,6.973-1.667l-2.726,0.101c3.53-0.6,5.106-1.674,6.671-2.772         c0.782-0.566,1.539-1.037,2.667-1.752c0.133-0.08,0.268-0.162,0.406-0.246c0.124-0.098,0.252-0.199,0.382-0.303         c0.263-0.203,0.54-0.405,0.838-0.608c0.563-0.435,1.191-0.921,1.913-1.479c-0.179,0.459-0.279,1.274,0.119,1.78         c0.198,0.245,0.521,0.396,1.029,0.336c0.488-0.072,1.116-0.382,1.946-1.018c0.176-0.507,0.367-1.376,0.627-2.404         c0.14-0.505,0.219-1.113,0.343-1.718c0.117-0.612,0.252-1.244,0.332-1.935c0.233-1.351,0.345-2.769,0.539-4.226         c0.197-1.514,0.527-3.063,1.052-4.556l1.076-0.807l1.556-4.612c0.03,1.694-0.158,4.795-0.47,8.059         c-0.084,0.814-0.17,1.64-0.254,2.458c-0.048,0.408-0.095,0.814-0.142,1.216c-0.057,0.406-0.157,0.838-0.24,1.253         c-0.095,0.423-0.188,0.84-0.279,1.246c-0.127,0.392-0.25,0.774-0.37,1.145c-0.245,0.751-0.508,1.453-0.811,2.045         c0.588-0.507,0.925-0.798,1.157-0.998c0.24-0.193,0.389-0.28,0.551-0.417c0.319-0.278,0.749-0.711,1.874-2.833         c1.328-1.27-0.487,2.783-1.375,3.89c0,0,0.418-0.565,1.045-1.414c0.293-0.449,0.617-0.994,0.97-1.572         c0.163-0.275,0.382-0.625,0.511-0.863c0.139-0.251,0.28-0.507,0.421-0.763c1.13-2.044,2.26-4.089,2.26-4.089         c-1.281-0.179,2.111-6.93,1.04-7.07l-3.422,9.63c-1.276-0.182-0.469-6.799,2.696-12.612c1.191-1.284,1.38,2.103,1.807,2.164         c0.01-0.957,2.103-5.971,2.642-6.38l-0.676,2.801c2.065-3.083,1.251-6.098,4.282-9.527c0.757-1.33,3.457-3.367,2.929-3.928         c-2.366,1.599-6.443,0.093-6.635-1.862c0.163-0.218,1.382-1.847,2.695-3.603c1.398-1.747,2.908-3.583,3.659-4.154         c1.121-0.81,1.192,0.334,1.251,1.49c0.087,1.174,0.153,2.345,1.056,1.661c-0.259-0.24,0.028-1.629,0.223-2.18         c1.051-1.207,0.564,1.078,2.172-1.921c-0.813-1.17,3.838-5.757-0.047-1.924c0.761-1.497,1.3-2.211,1.906-2.96         c0.076-0.094,0.153-0.188,0.231-0.285c0.063-0.065,0.128-0.131,0.194-0.199c0.126-0.135,0.261-0.278,0.41-0.438         c0.289-0.322,0.607-0.713,0.998-1.273c-0.23-0.023-0.364-0.299-0.366-0.805c0.048-0.406,0.433-0.656,1.016-0.993         c0.58-0.313,1.454-0.612,2.385-0.855c0.459-0.122,0.925-0.229,1.382-0.317l0.086-0.016c0.917,0.413,0.255,0.115,0.46,0.208         l0.002,0.002l0.005,0.003l0.008,0.007l0.017,0.014l0.033,0.028l0.132,0.114l0.257,0.229c0.164,0.157,0.326,0.311,0.483,0.461         c-0.368,0.046-0.196,0.911-0.109,1.314c1.107,1.347,1.921,2.668,2.726,3.854c0.809,1.183,1.454,2.348,2.129,3.47         c0.335,0.562,0.668,1.122,1.005,1.688c0.32,0.575,0.644,1.156,0.977,1.755c0.684,1.189,1.406,2.446,2.214,3.853         c0.044,0.671,1.318,3.569,0.181,2.682c0.663,0.698,1.461,1.229,2.501,2.951c1.037,3.899-2.406-3.786-2.022-0.575         c0.751-0.145,3.482,3.987,5.316,6.231c0.517-1.322-3.154-5.819-4.989-8.067c1.318-0.786,5.227,2.711,9.277,8.234         c3.062,4.481,0.327,2.527,0.99,3.228c2.45,4.458,4.122,5.989,5.594,7.387c0.736,0.699,1.423,1.365,2.132,2.347         c0.354,0.491,0.715,1.061,1.089,1.753c0.369,0.668,0.786,1.602,1.132,2.276c0.173,0.688,0.18,1.144,0.123,1.407         c-0.076,0.271-0.293,0.383-0.557,0.427c-0.547,0.109-1.181-0.143-1.271,0.369c-1.413-1.615-2.065-3.257-2.677-4.637         c-0.595-1.407-1.064-2.682-1.835-3.963l1.457,3.411c-0.989-1.047-2.688-3.464-3.252-4.992         c0.345,1.429,2.425,5.176,4.951,9.42c1.306,2.155,3.261,4.009,5.244,5.56c0.967,0.822,2.035,1.443,2.996,2.12         c0.511,0.291,1.007,0.573,1.484,0.845c0.239,0.139,0.475,0.275,0.704,0.409c0.24,0.114,0.477,0.226,0.706,0.334         c1.462,0.297,3.913,0.371,2.872-0.237c0,0-0.601-0.105-1.202-0.21c-0.587-0.178-1.174-0.355-1.174-0.355         c-0.913-0.751,0.276-0.611,1.274-0.479c1.025,0.059,1.876,0.038,0.553-0.434c0.375,0.011,0.756,0.021,1.145,0.033         c0.188,0.005,0.38,0.011,0.572,0.017c0.222-0.005,0.446-0.01,0.672-0.016c0.904-0.019,1.842-0.027,2.815,0.002         c1.949,0.058,4.047,0.265,6.331,0.833l0.706,1.234c-0.051-0.337-2.932-1.112-4.285-0.971c2.005-0.199,6.885,2.56,9.219,1.433         l-3.136-1.252c3.39-0.059,7.652-0.617,11.709,0.347c-1.706-1.37-0.965-0.017-3.694-1.73c2.294,1.966-10.5-1.643-6.685,0.634         c-2.773-1.929-5.091-1.405-8.818-3.254c0.066,0.382,1.283,0.904-2.139,0.208c-0.172,0.083-0.56,0.163-0.805,0.208         c-0.104-0.028-0.141-0.038-0.229-0.063c0.066,0.026,0.117,0.046,0.184,0.072c-0.157,0.032-0.172,0.042,0.069,0.025         c0.797,0.282,1.435,0.574,1.674,0.817c-0.459,0.145-1.146,0.2-1.948,0.205c-0.401,0.002-0.831-0.009-1.275-0.027         c-0.42-0.023-0.722-0.076-1.102-0.116c-1.452-0.149-3.006-0.743-3.833-0.926c-1.558-0.952,0.871-0.047,0.16-0.829         c0,0-0.622-0.086-1.22-0.294c-0.615-0.185-1.23-0.37-1.23-0.37c0.091-0.375-0.656-1.4-0.974-1.994         c-0.323-0.602-0.186-0.832,1.556,0.176l-1.436-1.091l-1.294-1.197c-0.281-0.438-0.531-0.915-0.852-1.362         c-0.319-0.452-0.465-0.904-0.754-1.311l-0.101-0.152l-0.129-0.231l-0.269-0.476c-0.181-0.313-0.362-0.615-0.545-0.903         c-0.365-0.577-0.73-1.096-1.081-1.526c-0.892-1.876-3.419-4.057-1.957-2.823l-3.91-5.686l0.145-0.158         c-3.338-5.914-8.223-11.385-10.866-18.831c-1.396-1.889-2.889-3.938-4.93-7.293l0.148-1.042         c-0.978-1.191-2.172-3.13-3.379-4.901c-0.645-0.888-1.27-1.723-1.823-2.371c-0.07-0.08-0.138-0.158-0.204-0.234l-0.099-0.11         l-0.05-0.053l-0.001-0.001c0.867,0.39-7.554-3.406-3.99-1.799l-0.004,0l-0.009,0l-0.016,0.001l-0.032,0.002         c-0.171,0.013-0.328,0.03-0.472,0.052c-0.287,0.045-0.518,0.111-0.675,0.203c-0.198-0.119-0.427-0.225-0.684-0.318         c-0.083-0.047-0.368-0.091-0.615-0.132c-0.258-0.037-0.525-0.075-0.804-0.115c-1.123-0.141-2.455-0.239-3.925-0.305         c-0.368-0.014-0.744-0.029-1.127-0.043c-0.095-0.001-0.194-0.01-0.287-0.004l-0.173,0.223l-0.35,0.455         c-0.468,0.623-0.95,1.266-1.445,1.925c-0.488,0.67-0.988,1.356-1.497,2.054c-0.245,0.343-0.492,0.689-0.741,1.038         l-0.396,0.638c-1.051,1.716-2.141,3.494-3.025,5.169c-0.923,1.657-1.782,3.164-2.491,4.358l0.714,0.621         c-0.454,0.817-0.896,1.644-1.307,2.472c-0.379,0.804-0.746,1.623-1.114,2.472c-0.736,1.697-1.473,3.515-2.298,5.568         l0.851,0.125c-1.11,3.698-4.91,8.473-7.538,13.883c-0.095-0.505,0.663-1.831,1.316-2.711         c-2.438,2.795-3.841,6.333-5.15,9.822c-0.329,0.872-0.656,1.739-0.98,2.597c-0.163,0.419-0.336,0.869-0.5,1.25         c-0.16,0.337-0.319,0.672-0.477,1.003c-0.29,0.675-0.794,1.265-1.215,1.847c-0.489,0.545-1.021,1.046-1.597,1.447         c-0.373,0.576-0.734,1.074-1.141,1.41c-0.409,0.327-0.815,0.597-1.228,0.801c0.094-0.061,0.165-0.162,0.22-0.239         c-0.106,0.089-0.259,0.209-0.417,0.31c-0.524,0.182-1.081,0.437-1.559,0.492c0.447,0.025,0.945-0.146,1.339-0.335         c-0.191,0.139-0.403,0.302-0.629,0.486c-0.22,0.143-0.444,0.268-0.68,0.434c-0.259,0.206-0.429,0.246-0.61,0.356         c-0.116,0.055-0.129,0.117-0.334,0.188l-0.668,0.217l-0.959-0.69c-0.146,0.041-0.264,0.073-0.416,0.115         c-1.854,0.067-1.349,0.714-0.258,1.154c-0.887,0.338-1.69,0.687-2.297,1.034c-1.748-1.071-4.677,1.492-6.975,0.442         c-1.072,0.982-9.035,2.507-9.68,4.229c-0.104-0.183-0.661-0.162,0.319-0.386c-2.067,0.264-4.132,0.528-5.86,1.346         l-1.096-0.904l-4.116,2.417c-2.835-0.085-4.033-0.231-1.541-1.644c-1.544,0.669-2.637,1.104-3.489,1.419         c-0.881,0.308-1.504,0.526-2.098,0.733c-1.231,0.432-2.357,0.815-4.891,2.395l0.03-0.772         c-0.997,0.341-2.176,1.085-3.27,1.717c-0.543,0.333-1.066,0.636-1.542,0.855c-0.507,0.246-1.054,0.486-1.472,0.53         c-0.37,0.098-0.808,0.229-1.295,0.42c-0.472,0.216-0.999,0.479-1.575,0.783c-0.611,0.279-1.06,0.748-1.625,1.201         c-0.6,0.408-1.039,1.082-1.242,1.889c-0.408,1.593-0.073,3.431,0.64,5.342c0.361,0.962,0.813,1.915,1.35,2.908         c0.424,0.776,0.839,1.489,1.303,2.223c0.917,1.456,1.929,2.892,3.021,4.305c1.105,1.416,2.239,2.792,3.66,4.174         c2.429,2.332,4.729,4.646,6.649,6.821c-0.228-3.073,3.323,4.307,4.768,3.397c0.159,0.822,1.157,2.113-0.518,1.18         c4.683,3.592,6.002,6.533,9.939,8.239c0.159,0.825-1.427-0.303-1.184,0.32c0.422,0.237,1.677,0.934,1.928,1.567         c0.241,0.624-0.921-0.268-1.757-0.731c4.502,3.979,5.992,3.243,7.292,2.464c0.225,0.313,0.435,0.605,0.633,0.882         c0.149,0.254,0.293,0.481,0.438,0.688c0.287,0.417,0.595,0.726,0.855,1.101c0.28,0.348,0.591,0.645,0.958,0.928         c0.356,0.293,0.712,0.62,1.173,0.942c0.035,0.538,0.116,1.205-0.052,1.391c-0.075,0.089-0.19,0.046-0.381-0.198         c-0.218-0.229-0.525-0.647-0.95-1.337c0.444,0.783,1.584,3.384,2.113,5.907c0.1,0.625,0.287,1.24,0.349,1.799         c0.061,0.558,0.14,1.072,0.234,1.516c0.068,0.847,0.212,1.43,0.504,1.509c-0.129,0.209-0.274,0.98-0.329,1.688         c-0.062,0.719-0.068,1.432-0.038,1.715c-0.68,4.663-0.837,5.061-1.328,9.663l0.355-1.248         c1.154,1.994-0.188,3.854-0.505,7.576l-0.129-0.125c-2.113,8.35,0.002,3.725-2.237,11.941l0.925-0.342         c1.759,1.024-2.067,7.27-1.992,12.219l0.725-1.688c0.145,1.368-0.73,3.139-1.715,4.896l-0.373,0.657         c-0.102,0.332-0.186,0.722-0.263,1.099c-0.063,0.367-0.127,0.73-0.189,1.088c-0.052,0.246-0.103,0.487-0.153,0.724         c-0.186,0.943-0.313,1.852-0.249,2.523c-0.062,0.62-0.42-0.882-0.657-1.751c-0.011,1.924,0.113,2.811,0.248,3.326         c0.034,0.113,0.075,0.216,0.131,0.36c0.051,0.12,0.103,0.203,0.153,0.258c0.104,0.11,0.209,0.111,0.321,0.088         c0.223-0.05,0.475-0.185,0.772,0.173c0.157,0.17,0.288,0.493,0.498,0.94c0.225,0.435,0.477,1.038,0.77,1.882         c-0.063,0.793-0.514,0.588-0.791,0.759c-0.273,0.177-0.339,0.782,0.531,3.439c0.08,0.366,0.547,0.66,1.067,0.97         c0.286,0.127,0.581,0.296,0.947,0.408c0.373,0.097,0.773,0.202,1.2,0.313c0.932,0.078,1.92,0.249,3.066,0.16         c0.554-0.019,1.127-0.039,1.714-0.059c0.604-0.048,1.222-0.096,1.849-0.146c0.392-0.025,0.786-0.052,1.183-0.077         c0.317-0.085,0.53-0.251,0.801-0.371l0.771-0.39l0.662-0.34c0.709-0.377,1.427-0.738,2.138-1.063         c0.708-0.327,1.429-0.61,2.099-0.854c0.661-0.247,1.306-0.438,1.922-0.553c-1.174,0.007-2.33,0.007-0.233-1.328         c1.674-0.854,4.206-1.477,6.576-2.267c2.364-0.79,4.617-1.712,5.827-3.104c0.484-0.083,0.7-0.046,0.768,0.053         c2.421-1.557,8.128-4.501,9.341-5.964c1.832,0.81,5.694-1.397,9.238-3.488c1.771-1.045,3.464-2.062,4.783-2.657         c1.252-0.561,2.132-0.633,2.371,0.018c0,0,1.84-0.775,3.744-1.278c0.945-0.258,1.894-0.464,2.571-0.56         c0.344-0.057,0.611-0.078,0.808-0.106c0.184-0.014,0.288-0.021,0.288-0.021l-0.156,0.292         c0.252-0.003,0.541-0.011,0.688,0.005c0.14-0.002,0.301,0.02,0.441,0.032c0.314,0.041,0.485,0.099,0.834,0.212         c0.953,0.323,1.763,0.548,2.476,0.705c1.426,0.315,2.468,0.366,3.508,0.415c1.138,0.649,0.161,0.546,0.009,0.643         c7.423,3.516,8.225,3.703,15.125,4.922l0.336,1.101c0.962,0.096,3.59,1.507,6.96,3.138c1.686,0.815,3.556,1.687,5.497,2.475         c0.971,0.395,1.959,0.769,2.95,1.105c1.008,0.329,2.038,0.61,3.043,0.842c-0.111,0.068-0.331,0.174-0.988,0.067         c2.261,0.55,4.626,1.444,6.985,2.452l1.814,0.788c0.842,0.34,1.708,0.657,2.577,0.94l0.65,0.206         c0.216,0.072,0.431,0.14,0.672,0.129c0.472,0.021,0.941,0.042,1.407,0.063c0.944,0.058,1.843-0.019,2.757-0.027         c0.466,0.01,0.88-0.078,1.303-0.142c0.416-0.076,0.855-0.111,1.239-0.226c0.379-0.126,0.752-0.25,1.12-0.372         c0.334-0.18,0.682-0.317,0.988-0.532c0.287-0.207,0.661-0.419,0.796-0.746c0.073-0.358,0.145-0.711,0.215-1.056         c0.136-0.692,0.255-1.363,0.352-2.004c0.192-1.282,0.294-2.444,0.255-3.424c-0.206-1.087-0.533-1.971-0.947-2.567         c0,0-0.014-0.131-0.04-0.36c-0.013-0.113-0.028-0.252-0.046-0.41c-0.02-0.119-0.042-0.254-0.065-0.4         c-0.098-0.575-0.227-1.342-0.356-2.107c-0.107-0.766-0.323-1.521-0.447-2.087c-0.134-0.565-0.223-0.942-0.223-0.942         c0.068,0.99,0.096,1.715,0.09,2.231c-0.019,0.519-0.09,0.829-0.157,0.989c-0.143,0.319-0.34,0.037-0.552-0.385         c-0.429-0.848-1.038-2.226-1.137-0.621c-0.251-1.504-0.203-3.48-0.027-4.642c0.102-0.579,0.153-0.948,0.301-0.942         c0.131,0.007,0.337,0.394,0.458,1.333l-0.103,0.609c0.461,0.297,0.667-0.165,0.733-1.034         c0.082-0.868-0.147-2.155-0.329-3.474c-0.102-0.659-0.205-1.327-0.303-1.957c-0.12-0.596-0.227-1.158-0.299-1.644         c-0.143-0.97-0.148-1.634,0.146-1.651c-1.813-7.374-3.354-14.716-4.849-21.945c-0.751-3.613-1.495-7.198-2.233-10.75         l-0.282-1.328l-0.143-0.663c-0.04-0.21-0.036-0.339-0.06-0.51c-0.034-0.323-0.075-0.643-0.122-0.961         c-0.036-0.325,0.01-0.691,0.004-1.032c0.021-0.351-0.029-0.686,0.038-1.046l0.146-1.072l0.065-0.535l0.133-0.532l0.255-1.064         c0,0-0.398,0.252-0.798,0.505c-0.406,0.276-0.813,0.554-0.813,0.554s0.067-0.266,0.168-0.663         c0.12-0.392,0.185-0.941,0.407-1.444c0.188-0.512,0.377-1.023,0.519-1.407c0.151-0.378,0.289-0.608,0.29-0.608         c0.389-0.446,0.777-0.66,0.908-0.435c0.065,0.112,0.067,0.331-0.029,0.681c-0.047,0.176-0.125,0.38-0.222,0.628         c-0.072,0.262-0.169,0.563-0.297,0.908c0.566-0.63,0.94-1.731,1.159-2.79c0.298-0.968,0.407-1.975,0.354-2.055         c0.521-0.477,0.861-0.781,1.148-0.98c0.346-0.225,0.548-0.304,0.645-0.278c0.097,0.024,0.089,0.154,0.014,0.348         c-0.064,0.188-0.257,0.473-0.314,0.691c-0.177,0.478-0.443,0.965-0.577,1.307c-0.111,0.383-0.133,0.548,0.083,0.217         c-0.017-0.03,0.294-0.418,0.602-0.798c0.153-0.201,0.308-0.402,0.423-0.553c0.188-0.195,0.313-0.325,0.313-0.325         l-0.532,0.318c1.214-1.974,1.023-2.566,4.103-5.473c2.116-1.686,1.563-0.374,2.358-1.076c0.062,0.072,0.35-0.146,1.193-1.105         l4.564-4.274l-2.526,0.987c1.627-2.302,4.256-4.057,1.356-2.9c0.54-0.204,1.213-0.604,1.982-1.149         c0.385-0.273,0.794-0.583,1.223-0.923c0.212-0.172,0.431-0.35,0.656-0.531l0.312-0.257l0.087-0.041         c0.463-0.231,0.91-0.606,1.323-1.003c0.825-0.792,1.51-1.669,1.898-1.648c0.031-1.101,0.6-1.633,1.356-2.239         c-0.324,0.01-1.251-0.737-0.553-1.213c1.48,1.961,1.83-0.303,3.535,0.487c-1.241-0.416,1.497-1.855-0.33-2.383         c0.636-0.343,0.666,0.625,1.444,0.67c0.263-0.915,1.023-1.439,1.873-1.941c0.425-0.252,0.872-0.497,1.291-0.783         c0.424-0.293,0.78-0.578,1.192-1.11c-0.209-0.245-0.828-0.311-0.825-0.999c0,0,0.5,0.053,0.999,0.104         c0.503,0.04,1.005,0.079,1.005,0.079c0.181-0.453-1.124-1.513,0.234-1.414c-0.28-0.084-0.698-0.216-0.592-0.504         c1.966-1.167,2.982-3.143,4.01-5.057c0.516-0.963,1.038-1.919,1.708-2.827c0.672-0.916,1.487-1.759,2.618-2.702         c-0.82,0.429-0.714-0.029-0.563-0.516c-0.253,0.263-0.742-0.272-1.175-0.354c0,0,0.448-0.356,0.887-0.791         c0.438-0.427,0.849-0.997,0.849-0.996c-0.548-0.324-0.465-0.974-0.486-1.74c-0.012-0.786-0.341-1.823-0.987-1.776         c-0.01-0.01,0.195,0.281,0.303,0.525c0.121,0.251,0.226,0.519,0.226,0.519c-0.837-0.591-1.389,0.224-2.185,0.595         c-0.769,0.436-1.656,0.618-2.518,0.505c0.747,0.316,0.099,0.686-0.492,0.962c-0.604,0.313-1.149,0.614-0.358,1.582         c-0.43,0.093-0.429-0.421-0.855-0.453c0.573,0.551,0.568,0.96-0.031,1.419l-0.132-0.15c-0.706,1.78-1.79,2.165-3.381,3.697         l0.807,0.344c-0.359,0.331-0.642,0.26-0.942,0.319c0.773,1.192,0.806-1.059,1.726,0.152c-1.778-0.444-1.987,2.774-3.836,1.86         c-0.447,0.542,0.912,0.458,0.457,1.008l-0.537-0.197l0.423,0.58c-0.389,0.292-1.051,0.014-1.404-0.271         c0.111-0.046,0.103-0.314,0.147-0.427c-0.852,0.033-0.884,1.318-1.153,1.283c-0.006,0.014,0.65-0.196,0.65-0.196         c-0.323,0.725-1.32,1.589-2.119,2.405c-0.824,0.833-1.591,1.713-1.945,2.822l0.396,0.184         c-0.602,1.633-1.213,0.556-2.206,2.005l-0.022-0.113c0.035,0.531-0.153,0.999-0.523,1.294c-0.02-0.645-1.232-0.094-1.19-0.87         c-0.657,1.766-0.161,1.042,0.086,2.91l-0.655-0.304c0.149,0.704,0.352,0.958-0.145,1.683c0.104-0.907-1.11-0.355-1.076-1.455         c-1.162,0.1-1.383,0.833-1.576,1.421c-0.097,0.294-0.186,0.552-0.382,0.675c-0.099,0.062-0.224,0.09-0.39,0.072         c-0.041-0.005-0.085-0.012-0.132-0.022l-0.073-0.018l-0.186,0.084c-0.253,0.109-0.517,0.205-0.793,0.286         c-0.405,1.045-0.219,1.279,0.269,1.073c0.43-0.151,1.527-1.102,1.46-0.982c0.366-0.25,0.637-0.663,0.609-0.357         c0.352,0.083,0.473,0.453,0.438,0.834c-0.018,0.19-0.073,0.384-0.159,0.546c-0.021,0.041-0.044,0.079-0.069,0.115         c-0.137,0.142-0.272,0.28-0.404,0.416c-0.288,0.287-0.572,0.551-0.838,0.776c-2.064,1.947-5.125,1.647-10.219,6.645         c0.516-0.489,0.452-0.623,0.965-1.111c-2.247,1.519-3.303,4.108-6.192,5.836c-0.133,0.522-0.393,0.966-0.697,1.359         c-0.18,0.223-0.358,0.443-0.532,0.659c-0.193,0.229-0.381,0.453-0.562,0.667c-0.761,0.843-1.156,1.637-0.72,2.287         c0,0,0.225-0.409,0.609-1.006c0.438-0.554,1.071-1.376,1.661-2.048c1.116-1.2,2.232-2.399,2.232-2.399         c-0.601,0.714-1.133,1.476-1.672,2.275c-0.134,0.201-0.27,0.403-0.406,0.608c-0.147,0.243-0.297,0.489-0.447,0.738         c-0.289,0.499-0.614,0.984-0.887,1.505c-1.041,2.127-1.979,4.419-3.196,7.467c-0.217-0.571,0.041-2.568,0.396-3.944         c-0.614,0.826-0.811,1.789-1.077,2.716c-0.175,0.959-0.339,1.907-0.745,2.89c-0.361-0.212-0.395-0.866-0.296-1.828         c0.061-0.973,0.471-2.183,0.925-3.507c0.557-1.298,1.162-2.704,1.991-4.007c0.19-0.333,0.378-0.662,0.563-0.984         c0.224-0.317,0.444-0.628,0.658-0.931c0.212-0.312,0.418-0.614,0.616-0.907c0.097-0.15,0.191-0.298,0.285-0.442         c0.071-0.116,0.141-0.229,0.209-0.34c-0.115,0.06-0.224,0.12-0.354,0.224c-0.143,0.125-0.29,0.269-0.44,0.425         c-0.302,0.314-0.613,0.684-0.92,1.076c-0.15,0.197-0.313,0.397-0.448,0.604l-0.353,0.637         c-0.224,0.423-0.442,0.838-0.644,1.218c-0.212,0.376-0.369,0.725-0.487,1.015c-0.129,0.288-0.246,0.511-0.351,0.642         c-0.207,0.261-0.371,0.162-0.454-0.563c0.066,1.018-0.167,1.948-0.379,2.949c-0.125,0.496-0.287,0.998-0.471,1.514         c-0.149,0.526-0.305,1.071-0.465,1.635c-0.373,1.111-0.542,2.38-0.661,3.698c0.022,1.358,0.083,2.779,0.761,4.226         l-0.916-0.275c0.075,0.239,0.172,0.544,0.283,0.893c0.114,0.329,0.24,0.778,0.377,1.047c0.269,0.621,0.537,1.326,0.691,2.013         c0,0-0.421-0.554-0.842-1.107c-0.421-0.567-0.843-1.075-0.842-1.152c1.842,3.668,0.948,7.553,2.33,11.1         c-1.86-7.633,0.6-1.958,0.438-5.335c3.387,9.152-0.896,5.946,2.04,16.398c-0.461-1.399-0.783-5.482,0.143-3.343         c0.31,2.05,0.624,4.779,0.479,6.118c1.853,6.947,0.606-1.281,1.836,1.57c-0.451,2.626,1.241,3.332,2.305,6.317l-0.849,0.227         c0.676,4.043,1.268,4.48,1.773,4.783c0.503,0.297,0.978,0.538,1.267,4.017l-1.719-2.642c0,0,0.235,0.853,0.47,1.705         c0.114,0.431,0.25,0.851,0.317,1.187c0.063,0.337,0.105,0.563,0.105,0.563l-1.067-0.613c0.567,1.903,0.834,3.191,0.977,4.47         c0.088,0.64,0.039,1.286,0.033,2.009c-0.013,0.361-0.025,0.744-0.039,1.157c-0.006,0.262-0.021,0.268-0.033,0.382         c-0.014,0.091-0.026,0.187-0.04,0.285c0.304-0.142,0.704-0.103,1.045,0.338c0.365,0.43,0.547,1.292,0.525,2.42         c-0.289,0.543-0.484,0.124-0.61,0.022c-0.063-0.058-0.108-0.055-0.136,0.128c-0.047,0.201-0.449,0.339-1.052,0.459         c0.102-0.339,0.124-0.679,0.249-0.965c0.096-0.141-0.006-0.363,0.063-0.495c0.047-0.146,0.163-0.259,0.375-0.385         c-0.281-0.285-0.531-0.77-0.813-0.948c-0.159,0.156-0.252,0.324-0.302,0.52c-0.077,0.168,0.035,0.485-0.227,0.557         c-0.384,0.17-0.774,0.298-1.064,0.31c0.231,0.035,0.519,0.068,0.743,0.184c0,0-0.421,0.377-1.203,0.693         c-0.185,0.118-0.415,0.065-0.63,0.073c-0.228-0.008-0.439-0.016-0.621-0.021c-0.292,0.014-0.924-0.139-0.881-0.122         c-1.002-0.721,0.02-0.626,0.828-0.604c-1.296-0.377-2.463-0.377-4.502-1.047c0.762-0.479,0.883-1.221,3.842-0.487         l-6.729-1.633c-0.328-0.452-3.015-2.015-2.079-1.951c-3.509-1.823-9.497-2.237-14.154-4.657         c-0.303,0.029-0.858-0.046-1.929-0.356c-4.509-1.942-8.236-4.345-14.007-5.559l-2.604-2.396         c-4.345-1.394,3.57,3.132-3.665,0.811c-0.644-0.197-1.149-0.373-1.545-0.531c-0.586-0.235-1.021-0.41-1.347-0.542         c-0.678-0.272-0.886-0.429-0.905-0.632c-0.063-0.363,0.677-0.783-0.951-1.107c-0.289,0.024-0.646,0.064-0.919,0.107         c-0.282,0.04-0.529,0.104-0.795,0.164c-0.542,0.116-1.051,0.277-1.594,0.438c-1.066,0.334-2.147,0.743-3.28,1.161         c-2.256,0.833-4.709,1.758-7.414,2.447C363.981,341.845,365.44,341.472,367.025,340.854z M318.249,363.098         c0.27-0.086,0.639-0.266,0.929-0.368c0.065-0.065-0.242-0.041,0.027-0.114c0.146-0.043,0.285-0.034,0.417,0.051         c-0.061,0.297-0.167,0.513-0.296,0.666c-0.031,0.037-0.069,0.073-0.099,0.102c0.001,0.015,0,0.026-0.003,0.034         c-0.004,0.016-0.012,0.019-0.019,0.011C318.944,363.45,318.591,363.253,318.249,363.098z M309.092,287.265         c0.794,0.329,1.624,1.277,2.445,2.474C310.729,289.102,309.893,288.297,309.092,287.265z M403.933,222.25         c-0.03-0.019-0.052-0.033-0.083-0.044c-0.186-0.417-0.309-0.693-0.381-0.855c-0.09-0.219-0.115-0.282-0.089-0.227         c0.02,0.034,0.116,0.277,0.204,0.439C403.675,221.742,403.795,221.979,403.933,222.25z M406.381,225.444         c0.394,0.194,0.447,0.078,0.396-0.135c-0.179-0.013-0.445-0.177-0.763-0.432c-0.314-0.256-0.711-0.589-1.002-1.008         c0.018,0.182,0.06,0.414,0.271,0.671C405.501,224.792,405.85,225.091,406.381,225.444z M438.753,284.259l-0.863,0.52         C439.303,283.054,439.018,283.649,438.753,284.259z" style="fill:#202020;"/><path d="M317.051,294.098c0.044,0.383-0.053,0.548-0.156,0.701         C317.254,295.144,317.414,295.078,317.051,294.098z" style="fill:#202020;"/><path d="M403.25,348.748l0.155,0.072c0.106-0.016,0.173-0.047,0.218-0.085L403.25,348.748z" style="fill:#202020;"/><path d="M362.091,190.025c-0.639,0.8-1.021,1.217-1.347,1.463         C360.925,191.644,361.239,191.316,362.091,190.025z" style="fill:#202020;"/><path d="M429.797,230.631l-3.229-0.253c1.552,0.189,2.074,0.461,2.834,0.716         C429.361,230.88,428.796,230.496,429.797,230.631z" style="fill:#202020;"/><path d="M442.408,238.016c0.11-0.092,0.203,0.019,0.313-0.075l0.034-0.407         C442.347,237.499,442.016,237.782,442.408,238.016z" style="fill:#202020;"/><path d="M432.32,233.959c0.144,0.769,2.185,0.821,4.441,1.021c-0.134-0.017-0.263-0.03-0.396-0.059         C437.179,233.997,434.744,233.978,432.32,233.959z" style="fill:#202020;"/><path d="M437.284,235.033c0.347,0.041,0.697,0.081,1.045,0.121l0.519,0.078l0.242,0.043l0.05,0.018         c0.029-0.1,0.033-0.157,0.02-0.186c-0.017-0.029,0.003-0.021-0.251-0.037C438.506,235.054,437.907,235.073,437.284,235.033z" style="fill:#202020;"/><path d="M411.121,228.005c0.712,0.561,0.89-0.615,1.197-0.125c0.604-0.228-0.744-0.572-1.777-0.71         c-0.5-0.112-0.92-0.153-0.934-0.032c-0.007,0.061,0.089,0.163,0.324,0.317c0.118,0.077,0.271,0.171,0.464,0.271         C410.598,227.804,410.838,227.896,411.121,228.005z" style="fill:#202020;"/><polygon points="433.771,236.637 433.104,235.615 431.742,236.154        " style="fill:#202020;"/><path d="M416.206,233.327l3.537,0.786c-0.031-0.159,0.436-0.18,1.004-0.164         C418.549,233.588,416.161,233.047,416.206,233.327z" style="fill:#202020;"/><path d="M420.747,233.948c1.145,0.19,2.239,0.334,2.898,0.282         C423.024,234.146,421.684,233.976,420.747,233.948z" style="fill:#202020;"/><polygon points="428.844,236.175 427.815,235.829 425.301,235.384        " style="fill:#202020;"/><path d="M390.948,206.916l-2.217-3.274c-0.473-0.189-0.095,0.835,0.753,2.041         C390.149,206.388,390.993,207.591,390.948,206.916z" style="fill:#202020;"/><path d="M394.813,218.476c-0.375-1.016-0.235-1.181-0.28-1.852l-1.036,0.467L394.813,218.476z" style="fill:#202020;"/><path d="M388.779,208.677c-0.47-0.181-3.666-4.489-1.082-0.208         C388.168,208.658,390.387,211.938,388.779,208.677z" style="fill:#202020;"/><polygon points="356.51,193.807 356.955,192.911 355.233,192.2        " style="fill:#202020;"/><path d="M328.926,240.927c0.29-0.04,0.549-0.074,0.778-0.105c0.115-0.02,0.222-0.038,0.323-0.055         l0.146-0.028c0.075-0.021,0.148-0.041,0.219-0.061c0.584-0.17,1-0.333,1.298-0.476c0.593-0.29,0.746-0.491,0.811-0.688         c0.081-0.194,0.145-0.375,0.519-0.644c0.362-0.274,1.116-0.609,2.233-1.275c0.418-0.582-0.482-0.027-1.474,0.458         c-1.064,0.466-2.104,0.878-1.527,0.371c-0.769,0.512-1.826,0.872-2.434,1.11c-0.491,0.166-0.881,0.3-1.14,0.43         C328.159,240.223,328.164,240.467,328.926,240.927z" style="fill:#202020;"/><path d="M332.251,238.424c0.487-0.339,1.008-0.705,1.492-1.131         C332.911,237.906,332.487,238.209,332.251,238.424z" style="fill:#202020;"/><path d="M470.702,245.55c0,0,0.072-0.377,0.118-0.772c0.019-0.463-0.02-0.956-0.02-0.956         s-0.066,0.342-0.159,0.661c-0.081,0.338-0.222,0.57-0.222,0.57s0.072,0.122,0.144,0.244         C470.633,245.423,470.702,245.55,470.702,245.55z" style="fill:#202020;"/><path d="M468.436,242.915c0.022,0.023,0.65-1.103,0.627-1.125c-0.001,0-0.44-0.099-0.869-0.117         c-0.43-0.026-0.817,0.022-0.818,0.022C467.773,241.896,468.496,242.475,468.436,242.915z" style="fill:#202020;"/><path d="M318.564,360.244l-0.281,0.044c-0.287,0.146-0.284,0.291-0.28,0.575         c0,0,0.13-0.211,0.271-0.361C318.413,360.348,318.564,360.244,318.564,360.244z" style="fill:#202020;"/><polygon points="344.492,350.019 343.847,350.293 345.487,350.707        " style="fill:#202020;"/><path d="M381.139,338.107c-0.169-0.068-0.342-0.138-0.517-0.208c-0.336-0.127-0.672-0.269-1.032-0.341         c-0.697-0.226-1.435-0.36-2.18-0.416c-0.375-0.024-0.737-0.054-1.121-0.055c-0.35,0.006-0.699,0.012-1.044,0.017         c-0.541,0.038-1.071,0.075-1.58,0.11c0.503-0.083,1.068-0.101,1.565-0.106c0.308,0.015,0.604,0.029,0.893,0.043         c0.324,0.019,0.615,0.063,0.897,0.109c0.565,0.083,1.071,0.226,1.524,0.363c0.448,0.153,0.828,0.357,1.176,0.478         c0.312,0.151,0.579,0.281,0.8,0.388c0.125,0.063,0.229,0.098,0.315,0.099C381.008,338.59,381.105,338.452,381.139,338.107z" style="fill:#202020;"/></g></g></g></g></g></g></g><g id="Layer_1"/></svg>